/* XPM */
static char *out[] = {
/* columns rows colors chars-per-pixel */
"64 64 190 2 ",
"   c #2A2C2C",
".  c #2C322D",
"X  c #2E3331",
"o  c #313632",
"O  c #343A34",
"+  c #373D3A",
"@  c #393E38",
"#  c #3D433D",
"$  c #42493E",
"%  c #79763E",
"&  c #3E4441",
"*  c #3F4942",
"=  c #414741",
"-  c #444B45",
";  c #484F47",
":  c #464C49",
">  c #494F4A",
",  c #465044",
"<  c #4C534C",
"1  c #50574F",
"2  c #525A4E",
"3  c #4E5551",
"4  c #4F5955",
"5  c #515753",
"6  c #545B53",
"7  c #555D59",
"8  c #585E5A",
"9  c #576157",
"0  c #596156",
"q  c #57615C",
"w  c #5B635C",
"e  c #5F695E",
"r  c #626754",
"t  c #636A5E",
"y  c #6B735A",
"u  c #72765D",
"i  c #5D6562",
"p  c #5D6863",
"a  c #606663",
"s  c #636C64",
"d  c #676D6A",
"f  c #6A7266",
"g  c #657269",
"h  c #6A736B",
"j  c #6E796D",
"k  c #717865",
"l  c #737B6E",
"z  c #686E70",
"x  c #6D7671",
"c  c #6E7972",
"v  c #707771",
"b  c #737C73",
"n  c #747D79",
"m  c #768175",
"M  c #798276",
"N  c #768279",
"B  c #7C857B",
"V  c #7D897D",
"C  c #EFDA16",
"Z  c #EFDF1E",
"A  c #F6DF12",
"S  c #FADE15",
"D  c #F4DE1C",
"F  c #FEE407",
"G  c #FDE30A",
"H  c #F6E314",
"J  c #F9E212",
"K  c #F4E21C",
"L  c #F9E218",
"P  c #DED127",
"I  c #D7CD3D",
"U  c #DED23A",
"Y  c #EEDC23",
"T  c #ECDC2C",
"R  c #F2DE25",
"E  c #F2DE2B",
"W  c #E6DB35",
"Q  c #EBDB35",
"!  c #E5D93B",
"~  c #E6D83A",
"^  c #EFE025",
"/  c #ECE02C",
"(  c #F2E124",
")  c #838556",
"_  c #969859",
"`  c #B6AE47",
"'  c #A7A756",
"]  c #BBB756",
"[  c #848966",
"{  c #979A64",
"}  c #80877F",
"|  c #818B7E",
" . c #8B927A",
".. c #989D7D",
"X. c #A9AA69",
"o. c #B8B865",
"O. c #BCBB6C",
"+. c #A5A97A",
"@. c #AEB277",
"#. c #BDBE77",
"$. c #BBBF7E",
"%. c #BEC06B",
"&. c #BDC07D",
"*. c #D9CE40",
"=. c #DCD44A",
"-. c #CCC757",
";. c #CBC45A",
":. c #D5CD55",
">. c #D8CF54",
",. c #D3CC5D",
"<. c #D4D157",
"1. c #DBD355",
"2. c #D5D15C",
"3. c #DAD45C",
"4. c #E0D346",
"5. c #E3DA43",
"6. c #E3D749",
"7. c #E5D84A",
"8. c #CBCA64",
"9. c #C5C46A",
"0. c #CAC96F",
"q. c #D2CE64",
"w. c #D7D168",
"e. c #C5C679",
"r. c #7D8682",
"t. c #7F8B81",
"y. c #838D83",
"u. c #858D8A",
"i. c #859186",
"p. c #899386",
"a. c #86938A",
"s. c #89958C",
"d. c #87988D",
"f. c #8C998E",
"g. c #919D8D",
"h. c #8B9791",
"j. c #849892",
"k. c #8D9B93",
"l. c #8D9E98",
"z. c #919E95",
"x. c #919E99",
"c. c #9DA482",
"v. c #97A188",
"b. c #9BA58B",
"n. c #8FA196",
"m. c #8FA099",
"M. c #93A196",
"N. c #9CA695",
"B. c #9CA892",
"V. c #94A39B",
"C. c #99A59D",
"Z. c #97A89F",
"A. c #99A99E",
"S. c #A5AD87",
"D. c #A0A788",
"F. c #A3AB8C",
"G. c #ABB285",
"H. c #A9B38A",
"J. c #B4B881",
"K. c #B6BB86",
"L. c #B2BA8D",
"P. c #A4AE98",
"I. c #A5B094",
"U. c #ACB695",
"Y. c #A2B19C",
"T. c #ACB99B",
"R. c #B1BA95",
"E. c #B8BF9F",
"W. c #96A6A0",
"Q. c #9AA6A1",
"!. c #97A9A1",
"~. c #9BABA4",
"^. c #9DAEA9",
"/. c #9EB1A6",
"(. c #9EB1AB",
"). c #A1ACA5",
"_. c #A1AEA9",
"`. c #A4B3A3",
"'. c #AAB8A3",
"]. c #A2B2AC",
"[. c #A9B5AC",
"{. c #A4B5B1",
"}. c #AAB6B2",
"|. c #A5B8B4",
" X c #AEB9B5",
".X c #AEBAB9",
"XX c #B2BDBC",
"oX c #BEC384",
"OX c #BDC48E",
"+X c #B6C2C2",
/* pixels */
". 3 d d 6 > O - 7 w < 3 i a i z a 3 > 8 a 8 w 5 : - 5 7 7 7 : o o - 6 : : 3 5 i 8 5 < o & - - * : w x i : w 7 7 3 + : i i a :   ",
"3  X).x.z.C.C.C.~.Q._.}._._..XXXXXW.)._._.).x.V.V.x.x.C.~._.x.= 8 XXXX_.)._._.[.).A.t.- u._.Q.V.W.~.`._.^.~.k.V._._.Q.x.s.M.h.< ",
"n }.a.s.f.f.~.Q.~.^.V._.^.).W.~.].z.V.m.l.k.j.k.k.a.h.h.k.Z.f.- a +X{.u.y.a.z.a.a.s.M 6 Q.x.s.a.a.a.s.k.k.d.d.k.l.x.h.a.i.a.u.- ",
"x.z.z.s.N.z.M.C.V.C.x.W.^.^.~.~.^.Z.M.k.k.k.d.a.a.a.a.a.s.M.V * i .Xk.u.a.y.y.B i.f.B f ~.z.u.i.i.s.i.k.s.a.s.d.s.h.s.t.| y.y.# ",
"k.x.M.M.^.~.V.V.V.!.Z.V.W.~.Q.~.Z.V.M.k.k.a.a.s.a.p.a.s.i.i.B # q [.s.y.y.V | M p.z.b n ~.k.a.u.y.s.y.i.s.s.i.i.a.a.y.y.i.a.V # ",
"u.V.M.C.{.(.W.V.V.M.M.k.k.W.C.Q.k.k.k.k.h.a.y.a.a.a.s.s.i.d.B - i ).a.y.y.i.p.p.s.z.l n Q.k.j.a.i.a.y.s.s.a.a.a.y.i.i.i.V y.y.- ",
"n A.z.M.^.~.!.V.m.k.M.k.z.V.Q.Z.M.k.k.s.k.a.i.a.y.y.a.a.d.a.y.r _ K.p.i.a.a.a.d.s.y.h n V.h.h.d.s.f.f.a.i.a.p.a.y.y.y.i.y.y.a.> ",
"r.].M.x.Z.~.!.Z.Z.k.Z.k.x.z.V.V.V.V.k.h.h.d.k.s.s.s.i.y.d.k...I C E :.v.h.h.d.i.s.M 8 k.Q.k.h.h.k.f.h.s.i.i.i.a.i.i.y.i.i.a.| 2 ",
"x ^.k.z.k.W.Z.V.l.h.V.M.V.k.z.V.!.V.M.x.k.k.j.h.j.a.i.i.s.C.;.H G G S 9.k.k.a.s.a.h s [.^.h.h.h.j.k.a.a.y.a.y.s.p.i.i.i.i.d.V 5 ",
"7 W.x.x.k.M.M.z.s.z.C.M.z.k.V.z.M.M.M.x.x.d.i.u.u.i.t.i.i.F.T G G G G T N.l.a.t.n 7 }.Q.k.j.u.h.s.a.a.a.y.i.s.a.a.i.p.a.d.j.a.< ",
"n C.~.V.z.z.z.z.f.C.C.V.z.x.V.z.V.V.z.s.z.f.t.a.d.a.t.a.s.:.G G F F F H e.V.d.g q ).~.x.k.k.h.h.h.a.a.a.f.a.f.a.i.i.d.a.s.Q.V.; ",
"x.~.M.a.s.z.z.g.z.z.C.C.V.W.V.V.k.l.M.k.a.y.a.s.a.a.i.i.c.Y F F F F F J ! N.g b ~.x.l.l.l.k.k.h.k.h.s.h.z.k.s.s.i.d.s.s.Z.N.z.- ",
").W.x.u.N i.f.g.g.k.f.M.C.Z.x.k.h.h.k.k.y.y.a.s.i.i.i.d.,.H F F F F F G H { m ~.x.x.k.k.j.k.k.l.k.l.k.l.k.x.s.a.a.i.u.h.z.k.a.; ",
"Q.x.z.z.a.| y.s.k.g.p.s.a.f.h.a.a.a.a.i.B y.a.s.h.h.h.b.^ F F F F F F F F 4.[.z.x.M.l.k.k.l.l.l.V.m.l.k.k.x.h.a.p.t.t.h.x.x.z.6 ",
"}.A.k.k.s.V s.M.M.s.| i.s.h.h.a.a.a.a.a.y.u.a.C.V.k.k.8.H F F F F F F F G K R.M.m.M.Z.k.V.V.V.W.V.l.k.h.k.j.d.t.i.V r.M.V.Z.x.; ",
"C.~.z.y.y.M.m.!.k.s.V i.s.k.k.M.t.h s.d.a.i.k.C.k.M.b.T G F F F F F F F G F 2.M.M.m.k.k.k.V.l.W.V.l.l.a.y.a.j.d.i.t.k.Q.Q.~.x.# ",
"y.Z.M.Y.!.l.k.W.Z.i.| s.p.s.k.z.y.: h.f.h.s.z.z.z.h.9.S F G F F F F F F G F ( I.x.d.k.k.z.z.z.a.k.d.B y.s.M.k.d.y.i.k.Q.~.(.k.# ",
"s.V.s.z.Q.x.s.k.g.M y.p.p.i.z.z.d.< 4 6 B z.N.z.M.D.E G F F F F F F F F G F G 8.M.n.M.V.Z.z.y.k.m.a.k.s.Z.M.k.y.y.a.h.W.!.(.d.; ",
"z.Q.a.p.g.p.p.p.} M | p.i.p.z.C.k.3 y.h.w s b u.z.%.J F F F F F F F F F G F F T F.M.M.W.V.s.g.Q.!.!.V.l.n.n.d.a.i.a.s.!.Q.].a.w ",
"x.Q.a.| f.f.y.M } } } | B p.f.y.x g h B 0 f r [ o.Z G G F F F F F F F F F F G G 6.G.N.P.M.z.Q.^.^.!.m.l.n.n.s.a.V s.M.!.~.^.a.s ",
"y.B h M b v v v p.M M | f y e % ) J._ ' ] -.*.P K G F F F F F F F F F F F F F F G Y >.8.%.$.K.L.T.Y.M.N.M.V.V.d.y.k.M.Z.~./.i.6 ",
"@ ; 1 y.f.P.z.f.} g...O.>.U P Y K L A G G G J G F F F F F F F F F F F F F F F G F F G F J L K ( ^ W =.1.0.K.B.g.g.M.k.M.!.A.y.< ",
"u. XC.} u.x.x.k.|  .4.H G F F F F F F F F G F F F F F F F F F F F F F F F F F F F F F F F F F F F F G G G H =.b.z.s.s.V.A.Q.y.< ",
"{.).y.p.f.x.V.x.g.+.J G F F F F F F F F F F F F F F F F F F F F F F F F F F F F F F F F F F F F F G F G G F G 1.g.a.k.M.Z.C.B < ",
"x.i.| p.f.k.k.h.y.@.G F F F F F F F F F F F F F F F F G F F F F F F F F F F F F F F F F G F F F F F F F F F F W b.k.x.x.k.Q.i.; ",
"z n l B a.k.l.h.y.c.T G F F F F F F G F F F F F F F F F F F F F F F F F F F F G F F F F F F F F F F F F F G G 8.g.f.k.l.k.z.i.- ",
"d z.y.g.k.V.V.k.p.p.O.D G F F F F F F F F F F F F F F F F F F F F F F F F F F F F F F F F F F F F F F F G H <.B.k.k.k.k.f.z.M # ",
"v ).s.p.z.V.C.s.i.B B o.D F F F G G F F F F F F F F F F F F F F F F F F F F F F F G F F F F F F F F G F G 2.M.n.m.k.k.d.k.C.b @ ",
"n _.k.x.x.z.f.i.p.i.s.p.X.Z G F F F F F F F F F F F F G F F F F F F F F F F F F F F F F F F F F F G F G 3.B.V.n.V.m.k.k.Q.M.j o ",
"v _.x.x.z. .p.z.z.M.y.f 2 { E S G F F F F F F F F F F F F F F F F F F F F G F F F F F F F F F F F F H q.'.V.m.V.M.M.n.n.V.s.h O ",
"t z.z.u.} } | } B h 6 2 } z.K.E G G G F F F F F G F F F F F F F F F F F F G F F F F F F F F G F F S ;.B.k.y.t.i.d.k.f.f.i.| k - ",
"- 8 f r 5 a r < 6 ; . w t 6 f ) P G G F F F F F F F F F F F F F F F F F F F F F F F F F F G G G A ` k w s w q s h s 9 e w < < o ",
"+ 3 8 3 & & = = - < < i w < ; < ) ~ J G G F F F F G F F F F F F G F F F F F F F F F F F G F G D ] t 5 7 i i i s s p 8 4 > # + X ",
"r..X.X}._.Q.Q.P.V.).)._.].).C.).].E.5.G F F F F F F F F F F F F F F G F F F F F F F F F G F K w.].[._.[._.]._.|.}.{.{.^.W.).u.& ",
"Q._.Q.Q.).Q.C.x.x.x.x.l.Z.x.Z.].].A.L.T F F F F F F F F F G F F F F F G F F F F F F F F G J ,.C.}._.l.k.x.V.W.~.~.W.V.l.f.C.s.8 ",
"h.x.k.C.x.k.i.s.z.x.z.V.Z.Z.m.V.M.M.B.=.G F F F F F F F F F F F F F F F F F F F F F F F G Y S.k.h.k.M.x.k.k.k.k.x.x.j.h.h.u.y.> ",
"h.x.h.l.k.k.f.p.p.f.f.Q.Z.V.Z.V.V.Z./.1.G F F F F F F F F F F F F F F F F F F F F F F F F T v.s.s.h.k.h.k.k.j.l.V.M.k.k.h.s.y.= ",
"u.Q.h.h.k.f.f.f.s.s.z.V.M.V.V.Q.~.!.Y.7.G G F F F F F F F F F F F G F F F F F F F F F F G T v.d.j.k.k.h.k.k.k.k.l.k.l.k.k.z.k.< ",
"x _.u.h.f.s.s.f.s.h.z.z.n.V.~.~.^.^.T.Q G F F F F F F F F F F F F F F F F F F G F F F F F Z +.d.h.x.x.V.V.m.V.V.l.k.m.!.Z.V.k.1 ",
"7 {.h.h.s.y.y.k.h.z.V.C.M.M.A.~.~._.OXK G F F F F F F F F F F F F F F F F F F F F F F F F H &.l.k.V.x.W.W.V.V.W.l.l.M.Q.!.Q.u.= ",
"7 {.k.h.h.s.a.h.k.z.C.V.M.k.k.Z.~.`.e.J F F F F F F F F F G F F F G F F F F F F F F F F F H 8.m.!.V.V.!.!.!.V.!.V.l.n.m.!./.t.# ",
"z _.k.h.h.k.k.s.M.k.g.M.V.M.k.N.Q.].q.G F F F F F F F F F F F F F F F F F F F F F G F F G G =.m.V.V.V.!.~.!.!.!.V.Z.V.m.m.!.s.4 ",
"r._.l.x.k.l.k.k.M.s.k.M.A.C.k.k.M.`.5.G G G G F F F F F F F F G F F F F F F F F F F F F G G W M.V.V.Z.!./.~.~.!.V.V.V.m.l.Z.s.2 ",
"x.^.x.h.k.V.M.M.M.z.k.Z.^.~.A.Z.!.T./ F F G F F F F F F F F G G F G G G F F F F F F F F G F T B.m.V.m.V.(.(./.~.!.V.W.W.V.Q.f.- ",
"W.!.l.x.l.M.l.M.k.n.Z.!.~./.(.~.~.oXK G G F F F F F G F G A F C T T S F F F G F F F F G F G R H.m.V.!.!.^.~.!.!.Z.!.Z.W.W.!.s.# ",
"k.!.k.M.k.x.l.k.z.V.W.~.^.(.(./.~.q.H G G F F F F F G F J C I % u +.` Q J G F F F F F F F G H &.V.!.~.!.!.Z.Z.!.!.!.~.V.!.W.a.$ ",
"h.Q.m.M.M.M.k.s.n.V.^.(.~.!.(.(./.=.G G G F F F F F G H U @.f # : i k.T.,.R G G F F F G F G G q.Z.!.!.!.!.!.V.~.!.Q.Z.Z.~.).i.< ",
"h.).V.M.V.Z.x.s.j.m.~.(.|.t.^.~.Y.! G F F F F F G J W oXY.V.f $ a.+X|.V.M.S.=.K G G F G G F A 1.^.~.~.~.!.V.!.!.V.~.Z.^.(.^.y.2 ",
"u._.M.x.M.V.Z.M.k.d.V.(./.(.~.Q.B.W G F F F G G Y 0.I.Z.~.Z.j # a.{.~.V.k.s.s.G.! J G F F G G 7.].^.!.!.!.!.~.!.m.^.~.^.m.W.i.q ",
"u.).M.x.z.Z.^.M.M.k.Z.~.].~.Z.V.V.U J F F H L 2.U.n.Q.!.~.~.m , u.M.k.a.p.y.g.k.b.#.Q J G F J w.`.~.V.~.~.(.^.m.!.~.!.!.(.^.k.6 ",
"C.`.Z.C.M.Z.!.Z.V.n.M.W.~.V.!.Z.n.G.1.K K 3.L./.W.V.k.].].~.i.< B s.i.s.s.k.z.h.k.t.v.%.W K 6.T.~.!.~.Q.(.(.W.!.^.!.^.(.~./.M.< ",
").^.Z.Q.C.V.Z.C.Z.k.V.Z.~.~.~.A.M.Z./.'.'.n.Z.~.Z.V.x.M.A.V.i.4 s.z.y.V.M.k.l.M.k.i.p.i.g.I.N.z.Z.!./.!.^.(.~./.!.m.^.^./.~.s.# ",
"C.).M.V.Z.V.V.Z.!.m.Z.~.~.!.!.!.Z.Q././.V.V.Z.Z.k.z.z.x.z.M.V < z.i.l f.h.k.k.h.d.s.M.n.k.k.M.z.V.Z.V.W.(.(.!.(.~.!.^.^.^.(.t.# ",
"f.C.k.k.n.V.Z.A./.!./.(.(./.(.Z.A.~.Q.V.V.W.~.V.z.k.z.z.z.N.V 5 Q.).s.s.k.h.k.k.y.d.s.M.n.h.k.k.M.V.~.^.(.(./.!.^.W.~.~.(.(.V # ",
"h z.z.C.M.V.^.^.(.~.(.{.{.(.~.Q.V.V.V.V.V.V.C.V.V.z.z.z.f.p.| 6 ).].s.f.l.l.d.s.y.y.s.k.a.i.V.k.V.Q./.^.(./.m.d.!.W.V./.(./.V $ ",
"s W.Z.Z.Z.~.~.].{.(.{.|.{.{.~.M.M.M.M.M.V.z.z.V.z.n.z.g.y.| b 6 ).}.W.Q.W.l.j.t.M i.s.d.s.s.V.k.A.Z.~.^.(.~.Z.m.!.V.V.Z.(.(.p.- ",
"B (.^.!.~.~.(.(.|.|.|.|.|.|.!.j.M.p.s.k.M.f.s.f.g.z.z.s.M p.m 6 ).[.W.W.V.V.d.i.y.t.a.a.f.x.M.l.V.!.~.~.^.!.~.W.V.Z.V.V.(.(.s.# ",
"l.{.^.^.^.^.(.(.|.|.(.{.(.{.^.W.a.s.p.i.d.i.M l | } g.y.p.k.M < Q.^.V.Z.W.!.d.d.h.h.h.s.z.z.k.k.n.V.~.~.~.~.!.!.V.V.V.V.(.(.t.o ",
"[.|.^.(.^.(.].{.|.(.^.!.|.{.^.!.a.A.Z.A.^.f.M f h l } p.a.f.m , x.^.Q.W.!.Z.W.V.k.h.z.x.x.M.V.n.k.k.V.V.W.V.W.W.m.V.n.Z.(.(.m O ",
"}.{.(.(.(.(.(.(.|.(.(.^.^.(.^.!.V.Q.A.(.Z.k.p.V m l l b y.f.M , h._.W.W.V.m.W.m.W.l.x.V.k.M.m.k.s.a.a.s.k.m.M.M.n.n.M.Z.(.!.h # ",
"{.].Q.^.(.(.(.(.].^.(.].W.^.^.^.l.V.V.M.V.f.V p.y.| M | s.z.m < u.{.Z.Z.m.m.W.!.Z.V.W.W.k.k.z.z.s.| y.a.k.k.l.k.k.d.Z././.f.s # ",
"_._.Q.Q.Q.Q.~.Z.~.!.!.Z.(.^.(.^.V.M.M.f.f.k.m i.| | d.i.k.a.b < u._.k.Q.V.V.!.(.^.W.V.x.C.z.z.s.M V y.f.k.j.s.a.a.n.V.~.n.c t o ",
"y.Q.x.h.M.z.M.M.z.M.s.t.d.n.!.~.M.k.f.i.i.V m l l b t.V V j j 6 V.].M.^.C.V.k.k.k.f.s.s.M.s.f.B } } a.f.k.t.V V s.s.a.V j h f o ",
"> N l n g 0 t t w w 6 t m m m c b f t s r 0 w 6 0 5 0 6 2 0 a & v y.m m V B h w m M V j h l l f k a 1 h n B V l s s 9 < , = @ . "
};