/* XPM */
static char *out[] = {
/* columns rows colors chars-per-pixel */
"64 64 236 2 ",
"   c #2C322B",
".  c #31362E",
"X  c #2D3331",
"o  c #343B34",
"O  c #373C39",
"+  c #3A4037",
"@  c #3B423C",
"#  c #41483F",
"$  c #1B2B45",
"%  c #29354B",
"&  c #2C3B4D",
"*  c #373746",
"=  c #343549",
"-  c #333B4D",
";  c #3A3C4D",
":  c #2B3C53",
">  c #2B3A58",
",  c #333C52",
"<  c #3B3D51",
"1  c #313E5A",
"2  c #413E49",
"3  c #3D4441",
"4  c #3E4748",
"5  c #2E4159",
"6  c #3C4254",
"7  c #34425D",
"8  c #38445A",
"9  c #3C4B5E",
"0  c #354464",
"q  c #394665",
"w  c #364965",
"e  c #3A4965",
"r  c #384669",
"t  c #364869",
"y  c #3B4A6A",
"u  c #3C5663",
"i  c #3D5269",
"p  c #414643",
"a  c #434B45",
"s  c #464D49",
"d  c #484C4C",
"f  c #4A514D",
"g  c #4B554D",
"h  c #50574F",
"j  c #454758",
"k  c #4D5351",
"l  c #4D5559",
"z  c #565A57",
"x  c #5C635C",
"c  c #6D655B",
"v  c #424C67",
"b  c #43546B",
"n  c #475868",
"m  c #525E65",
"M  c #585D68",
"N  c #5A5E6B",
"B  c #475973",
"V  c #466267",
"C  c #4B646E",
"Z  c #5B6364",
"A  c #576369",
"S  c #4C6373",
"D  c #4D6A73",
"F  c #4E697B",
"G  c #556876",
"H  c #526D76",
"J  c #546D7B",
"K  c #596D7C",
"L  c #4F7178",
"P  c #597576",
"I  c #55737C",
"U  c #5A757D",
"Y  c #5C797D",
"T  c #656D64",
"R  c #69696A",
"E  c #697369",
"W  c #6C746B",
"Q  c #72776E",
"!  c #6C6A77",
"~  c #766D70",
"^  c #62787D",
"/  c #747D74",
"(  c #797779",
")  c #7D797C",
"_  c #817266",
"`  c #82797B",
"'  c #788276",
"]  c #7C857C",
"[  c #7E897D",
"{  c #858478",
"}  c #818A7E",
"|  c #8B8E7F",
" . c #586D82",
".. c #567382",
"X. c #5B7582",
"o. c #5C7982",
"O. c #5D7986",
"+. c #5D7489",
"@. c #617885",
"#. c #797C84",
"$. c #6C7992",
"%. c #877D85",
"&. c #648089",
"*. c #7E8B82",
"=. c #7C8789",
"-. c #7B8596",
";. c #888486",
":. c #838D83",
">. c #8A848B",
",. c #838E8A",
"<. c #948986",
"1. c #938C8C",
"2. c #859186",
"3. c #899386",
"4. c #86938A",
"5. c #89958C",
"6. c #87988D",
"7. c #8C998E",
"8. c #96958C",
"9. c #868B98",
"0. c #988D91",
"q. c #869394",
"w. c #8A9692",
"e. c #8D9B93",
"r. c #8E9D99",
"t. c #959494",
"y. c #919D95",
"u. c #9B9498",
"i. c #929D99",
"p. c #9C999C",
"a. c #A8968E",
"s. c #A8998D",
"d. c #A49896",
"f. c #A49B9D",
"g. c #8FA097",
"h. c #93A196",
"j. c #94A49C",
"k. c #99A59D",
"l. c #96A89F",
"z. c #9AA99F",
"x. c #A8A49B",
"c. c #BAAE91",
"v. c #B4A99C",
"b. c #868DA6",
"n. c #8B95A6",
"m. c #979CA7",
"M. c #8E98B2",
"N. c #A59DA3",
"B. c #95A5A1",
"V. c #9AA6A2",
"C. c #96A9A1",
"Z. c #9BABA4",
"A. c #96A1AF",
"S. c #9CA1AA",
"D. c #9DAEA9",
"F. c #9EB0A7",
"G. c #9EB1AB",
"H. c #9DA4B4",
"J. c #9CA9B5",
"K. c #9EABBA",
"L. c #AAA6A7",
"P. c #A2ABA4",
"I. c #A4ADAC",
"U. c #B6ABA5",
"Y. c #A4B1A7",
"T. c #A2B2AC",
"R. c #A9B4AE",
"E. c #B9B6A7",
"W. c #A3ABB3",
"Q. c #A4ABBB",
"!. c #A6AABA",
"~. c #B3ABB8",
"^. c #A4B6B1",
"/. c #AAB6B2",
"(. c #A6B9B4",
"). c #ADBAB5",
"_. c #AAB3BC",
"`. c #B9B5B8",
"'. c #B2BDBA",
"]. c #C2AC94",
"[. c #C6B699",
"{. c #D7BB9A",
"}. c #C1AEA2",
"|. c #C6B6A5",
" X c #D8BCA2",
".X c #C4BBB6",
"XX c #E2BEA0",
"oX c #B9C2BF",
"OX c #DBC19C",
"+X c #E7C89D",
"@X c #DBC6AA",
"#X c #CBC4B8",
"$X c #D4C7B8",
"%X c #D8D0BB",
"&X c #E8C9A7",
"*X c #E9D6A9",
"=X c #F2D5A8",
"-X c #E7CDB5",
";X c #F1CEB1",
":X c #E9D4B8",
">X c #F2D8B9",
",X c #F7E5BA",
"<X c #A5AEC6",
"1X c #ACAEC2",
"2X c #B2ADC5",
"3X c #ADB3C4",
"4X c #A8B3CA",
"5X c #B2B5C3",
"6X c #B7BAC8",
"7X c #B7B7D4",
"8X c #C4BCC4",
"9X c #BAC4C6",
"0X c #B8C5DA",
"qX c #BCC9DD",
"wX c #C5C4C8",
"eX c #CBCDCF",
"rX c #D5CBC5",
"tX c #C8CBD5",
"yX c #D6D3D4",
"uX c #E3CFC6",
"iX c #E7D8C5",
"pX c #E3D3CC",
"aX c #ECDACB",
"sX c #F2DBC7",
"dX c #E5D7D2",
"fX c #E4DCD5",
"gX c #ECDCD3",
"hX c #F1DDD2",
"jX c #EBE3CB",
"kX c #F6E5C9",
"lX c #ECE2D4",
"zX c #EAE2DA",
"xX c #F5E7D6",
"cX c #C9CFE4",
"vX c #C9D3E2",
"bX c #F0E0E7",
/* pixels */
"  g f k a # + a p a g s s s a k k d a s f s h d a g f d x ~ _ c x d p g 3 @ # f s f a X 3 p 3 a s p z f d a a d p p p f f d p X ",
"p '.R.i.h.k.h.z.P.k./.).I.I.).6XoX/.D.V.R.T.C.Z.k.i.V.i.~.pXuX-X.X`.oX(.).).R.R.R.z.6.@ P.R.C.j.D.k.T.R.T.D.z.V.R.D.V.l.h.h.y.* ",
"Z ).*.2.y.6.R.z.C.I.j.Z.Z.Z.j.D.^.w.l.g.r.g.6.6.w.4.,.*.U.hX>XaXrX_.T.=.*.:.7.*.4.2.} f T.i.2.2.4.2.4.w.6.6.e.e.r.e.7.4.2.2.3.o ",
"I.i.e.y.h.7.y.k.z.Z.l.C.T.D.l.C.Y.j.h.g.e.w.4.2.:.q.q.>.U.sX>X,XrXp.n.e.w.] :.[ 2.7.[ E /.7.2.4.2.5.6.5.4.4.6.5.7.7.7.*.} 2.:.o ",
"R.j.k.y.F.G.j.k.h.z.l.l.C.Z.Z.Z.z.j.j.e.e.4.*.9.K.<X1Xm.U.sX,XkXrX,.<XK._.S.=.' 5.h.} ;.(.w.2.2.2.4.:.2.4.5.2.2.4.4.:.2.2.5.2.o ",
"e.z.j.h.^.(.C.j.j.j.h.w.e.C.l.C.h.e.5.e.w.q.m.4X4X4X2Xm.U.kXkXxX.Xq.3X4X4X4X1Xq.2.h./ 5.Z.r.w.4.2.2.:.y.5.5.4.2.:.2.2.2.*.[ 3.o ",
"/ Z.i.k.F.F.C.j.g.e.h.i.h.V.z.z.j.w.w.5.r.!.<X4X4X4X7X~.U.xXsXxX.Xm.7X4X4X6X3X3XA.*.T } h.w.7.4.5.7.7.3.4.4.2.6.:.:.2.2.:.:.y.O ",
"i.T.e.7.z.G.Z.j.j.e.C.e.h.e.k.h.h.l.e.n.1X1X2X`.6X3X9.( a.xXkXkX].R %.m.6X5X3X5X6XW.Z 7.i.r.w.r.7.i.y.5.2.2.4.5.2.2.2.2.2.*.} # ",
"T R.e.e.6.l.l.h.r.7.j.h.h.e.i.h.l.h.m.1X1X5X6XN.;.8.U.$X|.kXOX,X XE.`.f.} 0.~.'.5X3Xm.I.T.w.e.e.5.r.4.6.2.5.:.w.4.2.2.2.4.6.[ + ",
"a F.j.r.h.g.l.y.t.y.h.i.h.e.j.h.j.9.!.1X5XtX;.<.$XiXaXjX@XxX@XkX[.%XzXiXpXE.` p.6X_.6Xm.w.w.*.4.7.4.4.w.:.5.7.2.4.2.5.4.7.4.h.@ ",
"*.l.P.j.i.7.h.y.7.x.C.l.r.j.k.h.q.!.2X2X6X#.N.dXjXiX$Xx.| xXlXxXs.| E.:XsXxX%X` N.6X4X2X,.r.e.w.7.4.4.4.7.:.7.2.*.6.6.3.e.l.h.@ ",
"I.D.j.7.7.y.y.8.h.h.l.z.i.V.j.h.M.2X2X8X` U.fXfX`./ k O g yXdXgX~ 2 k ~ x.gXhXiX8.m.7X7XJ.w.e.w.e.w.4.7.w.i.4.7.6.3.6.6.h.k.i.3 ",
"R.V.C.7.] 2.7.5.7.7.7.e.z.Z.i.w.H.2X8X%.d.aXpX1.d < 8 b j M z l k j v 6 ; ` uXsXuX` 2X7X<Xr.e.r.g.e.g.g.e.g.7.4.3.4.,.w.Z.y.t.@ ",
"V.l.e.t.2.' :.h.h.7.3.7.2.e.w.q.!.2X~.%.dXrX( ; < v v b b B n n B b v u j j ~ rXjX#X%.8X!.H.r.i.j.g.j.r.r.r.4.4.2.:.*.5.h.y.e.a ",
"'.Y.g.y.y.} 3.h.h.7.2.} 5.7.4.n.!.8X%.8XdX) X v i y B $.+. .@. .@.X.G S 8 y 2 R %XxXs.~.6X!.q.j.C.g.e.4.e.6.4.2.2.:.*.z.j.j.Z.@ ",
"T.z.6.2.] j.e.D.g.6.} 2.5.7.=.H.~.8X0.bXH.2 9 i C  ...+...+.X.+.U U o...J B v j <.sX#Xu.tX1Xq.B.B.g.e.4.2.e.w.*.2.:.w.Z.C.D.P.@ ",
"7.h.z.Y.D.e.w.D.l.2.[ 6.5.5.=.K.5Xp..XyX! j r B o.U Y Y Y o...Y Y Y I ......B j M $XaX3.yX_.m.:.e.6.*.:.7.h.i.7.:.2.w.Z.F.D.h.@ ",
"k.j.7.y.Z.z.6.e.7.[ 2.3.3.:.=.K.6X1.yXL.j v B $.O.P Y u D O.+...I P o.@.D J ..n j 1.zX8.9X3XH.4.j./ y.e.l.h.w.2.2.:.4.F.C.(.w.@ ",
"'.k.4.} 8.3.3.3.[ ' 3.3.2.:.m.6X'.u.fX%.6 b $. .+.Y H u D +.+.@.Y Y @.I u V X.K j ~ fXE.U.5XW.q.C.C.j.r.j.g.4.2.2.4.5.Z.D.^.5.h ",
"/.y.:.7.y.h.3./ { ] } } } w.6X8X`.E.rXz 4 J  .+.+.Y o.Y X. .+.@.Y Y Y o.L L O.X.A g #X#Xx.wXS.r.D.C.j.r.e.g.w.4.' 5.g.Z.l.C.4.W ",
"y.:.T Q E / / ' | } ' } / :.rX.X|..X`.d V K U U Y Y Y L Y ^ X.P o.Y P Y ..O.O.X.K z E.%Xx.rX7.k.C.B.r.h.h.j.l.6.[ h.h.l.C.Z.3.s ",
"O s h } 3.k.h.:.} 2.} 7.x.E.lXaXpXdXd.2 A C J Y Y L I Y Y P Y P Y I Y o.&...Y I ^ l E.jX$XjX#X`.L.D.7.e.j.j.g.5.7.k.e.h.Z.Z.5.+ ",
"i.oXP.} *.i.h.e.3.[ ] rX%X:X*X-X>XgX<.l n 9 H Y I &.o.X.X.Y C u I o.Y I ....' P ' Z R.kX,X*X,X,XaXxXP.j.l.e.g.w.h.5.7.j.C.P.:.@ ",
"wXP.:.3.e.i.j.i.7.} } $X@X&X=X*X&X-X%.m ^ G Y X.o.o.o.U X.Y D C L Y P Y ......P I Z U.>X+X*X=X=X&XjXx.C.j.e.6.6.e.5.e.h.j.Y.} @ ",
"R.5.:.5.e.e.r.r.[ [ } $X*X*X*X+X*X-X;.m @.X.^ @.@.J X.o.X.U o.&.L o.Y Y O...I Y Y T v.>X*X*X+X=X=XsXP.C.g.g.w.5.e.e.h.j.e.Y.5.+ ",
"T :.E [ 5.w.e.i.[ 3.2.%X>X>X=X=X*X$X<.n J S S S F ..O.I X.X.X.o.I Y Y Y ..+.Y P Y A U.kX*X*X=X,X>XkXy.j.C.j.l.e.5.e.e.i.e.h.5.+ ",
"h h.:.3.e.j.j.h.3.2.[ #XkX,X,X,X,X X0.j q q : 9 u S O.O.@.I X.o.Y o.Y o.X.O.H V ^ R U.kX*X,X,X,X,X:Xw.z.C.C.e.h.e.w.e.r.e.y.[ O ",
"T P.y.7.h.k.z.2.2.[ ' W [.[.OX[.[.uXN.2 v G % 8 : i G ..X.U o.O.L I o.I X.o.V V A M v.kXOXc.c.| c.] 4.j.C.j.r.e.r.e.e.w.g.k.' O ",
"Z R.e.k.y.5.7.2.3.*.7.] .XiXiXiX:XgXf.2 q , 1 5 b 5 J X.X.X.D V I I O.I X.@.S n P M x.xXiXaXpX:XrX;.j.l.C.C.l.r.l.g.e.e.j.Y.Q o ",
"x Y.j.k.7.| 3.y.h.l.3.E d R ;.{ { U.L.9 v b i 9 7 u X.I +.@.C D D o.o.X.....Y P P Z U.iX8.;.,.;.{ h.y.Z.G.C.l.j.h.h.g.e.h.6.E + ",
"f y.4.:.' } ' ' 2.T h g } m.`.'.h.8.I.j B w u i u I ..X.X.X.I D I Y X.I U @.U U P m L.gXL.W.W.p./ e.5.k.6.[ [ 2.e.y.7.y.6.[ ' @ ",
"o T / W T / W x T a . T x i.cXvXT.p.I.m X...X.U o.X.O...I X.U X.o.I ..U U  .U U P A x.zX8XtX0Xm.k / / x E T x ' [ ' x Q E + o   ",
"o g k s + O @ a # g a 4 3 ,.qXvXW.p.W.A X.X.I I o...o.I X.U U X.I I &.L L o.o.L P A P.zX6XqX0Xb.s f 4 3 3 a s 4 a 4 4 s 3 @ o X ",
"w.9X9X'.Z.r.x.z.Z././.oX/.5XvXvXW.m.L.N @.U J X.L D L ..J o.J X.&.I L ..&.I I I U m p.fX9XqXqXK.C.).oX).'.).(.).).).).).T.z.4.@ ",
").S.i.j.B.V.p.h.7.7.w.w.j.W.qXvXL.p.L.A X.U U U L u o.n n I U I L L L ..@.C 5 D P A 5.fX6XqXqXQ.I.R.w.5.e.r.C.j.l.g.r.e.w.h.e.@ ",
"V.C.e.V.i.e.3.5.7.y.i.j.l.W.cXvXN.f.L.m +.J K U o...I u V I ..I L ' ....U C D C ^ m t.zX9XqXqXm.*.r.g.g.e.r.e.e.j.j.5.e.w.5.[ O ",
"k.B.w.i.y.e.8.5.5.5.y.k.j.S.7XvXm.f.L.m ..I J I H o.H o.K K K P I H I P U I K K P z t.fXwXqX4Xq.=.e.e.7.w.r.e.e.j.j.w.e.e.4.;.. ",
"w.V.w.7.e.7.e.7.5.7.y.k.j.V.3X9Xm.f.L.m ..J I I Y L I H P K P K L Y L H K J U J G m 1.zX6X<XM.=.6.5.w.w.e.e.e.e.r.r.r.g.e.e.e.+ ",
"Z T.4.e.2.7.7.7.7.7.y.h.r.V.3X3X9.f.P.m +.G I I I H I H P K G K H I H I I U J J P m >.fXS.M.M.-.6.j.r.j.j.j.j.j.e.e.g.C.l.j.e.@ ",
"3 /.4.7.7.*.:.y.7.h.h.Z.i.B._.6X;.f.L.m X.J U H I I I I G K K U P I D I J J ..S G m >.dXu.m.M.9.w.j.j.l.l.l.l.l.h.g.j.Z.C.D.h.+ ",
"s ^.7.w.5.6.2.y.7.y.j.z.h.r.Q.H.#.f.L.l  .B K ..L L ..J J K ! B X.G o.H J .. .F G m ;.pX9.b.b.-.j.j.j.D.Z.C.l.l.C.e.e.B.C.F.*.@ ",
"h T.7.e.e.e.w.2.h.3.h.k.i.e.q.9.R U.N.v b S n  ...F J  .J G B K 9  .L J  ... .F S j ` yX%.-.-.,.j.l.g.C.Z.Z.C.C.j.C.j.e.g.C.i.@ ",
"*.G.j.r.w.r.h.r.h.5.y.h.Z.i.3X5X#.U.N.< q 5 b G S  . ... .J B e B  .F G S B B e 9 < ~ uX9.b.M.=.g.l.C.Z.F.Z.C.C.j.l.j.j.r.C.i.+ ",
"I.D.e.7.r.j.j.h.r.h.i.l.Z.V.W._.( ~.u.2 y 0 e e w i i i v B b b y i i w y 0 y 7 9 < ( pX>.b.M.-.e.j.g.C.F.F.F.D.C.l.B.C.l.Z.k.+ ",
").D.5.r.h.j.r.h.i.i.j.C.D.B.n.b.! U.u.; e v e e i t t t y : v y y e i w t t r 0 8 - ~ uX%.$.-.=.r.C.C.C.Y.Z.C.Z.l.j.C.j.l.P.z.O ",
"I.z.r.j.g.g.h.5.y.V.C.Z.C.B.J.H.! .XN.< v 0 y y y y t t 0 r t y 0 e t t t t y 7 8 < ` pX%.b.b.-.g.C.C.D.C.l.C.C.C.D.D.j.C.Z.7.o ",
"V.Z.e.h.h.h.g.4.7.h.Z.G.C.n.Q.K.! .XN.< y y 0 y y r y > i r r y w t t 5 y t 5 B 8 ; ~ dX>.n.M.-.g.l.z.z.l.C.j.z.Z.C.j.C.Z.Y.2.O ",
"R.P.h.j.l.j.j.2.7.l.Z.G.^.r.K.K.! 8Xf.j q y y 0 y y r r 1 r y r r y > w w w r > , < %.dX>.b.b.9.D.I.Z.C.C.l.C.Z.g.D.l.Y.G.Y.5.# ",
";.T.h.h.y.z.h.r.e.5.j.T.D.Z.K.K.! 8XN.2 v v 0 q q y r 0 y y q 0 y y y 0 v 0 v q e < ) gX,.b.M.-.F.F.Z.C.C.C.F.C.r.G.D.D.C.D.j.@ ",
":.T.g.h.y.z.G.j.j.e.j.Z.T.C.K.H.~ 8Xd.2 v 1 v y q y 0 v e q r e y 0 y y r 0 r 1 9 < %.dX>.q.n.q.Z.G.l.Z.D.^.G.C.C.F.C.B.D.D.j.@ ",
"R.Y.h.z.h.l.C.z.j.g.j.l.Z.i.Q.H.! rXd.< 1 v 1 y q y y q q q e 0 y q y q r r r v j = %.dX>.9.b.9.z.Z.C.C.G.G.j.C.C.j.F.T.F.F.z.+ ",
"Y.Z.j.Z.z.l.z.z.j.5.j.z.Z.m.Q.A.! rXu.< 1 $ 8 v q e e e e y e q e q v r 7 e r 0 q - >.dX1.b.-.#.j.C.Z.C.C.G.F.G.D.q.D.F.D.Z.z.+ ",
"R.z.l.l.l.h.j.l.C.g.C.Z.Z.r.W.H.! rXu., y 0 q e e e q q e y 7 7 y q e q r 0 0 7 1 = ;.pX<.b.b.#.h.l.j.C.G.^.C.Z.C.C.G.D.D.^.2.. ",
"Y.k.*.j.g.l.z.C.Z.C.G.G.T.r.m.m.! pXp.< w y 0 y r e y e y q 7 0 e e 0 e r r 0 0 8 = >.aX<.9.9.#.y.h.D.D.F.T.Z.D.G.C.D.F.G.^.' . ",
"z z.2.z.h.l.Y.F.G.D.G.^.^.i.;.t.R pXp.: i t r r y y y q e y b y e q e y r y 0 0 2 = <.hX;.>.#.] e.Z.I.D.G.Z.g.g.D.l.j.Z.^.F.2.. ",
"g P.z.Z.l.z.Z.G.^.^.^.(.T./.x.u.d.hXp.= y r r y e r y q 0 e 0 y e w y y r r r r v = 0.sX.Xp.t.k.i.i.Z.D.F.F.l.g.C.j.j.l.G.F.5.o ",
"=.^.D.C.C.C.D.G.^.(.(.G.P.fXzXgXxXuX0.< y y t t y y t w y 0 y w 0 e w e t y t r j - 1.$XhXbXzXlX`.r.Y.Z.D.j.D.l.C.l.j.g.G.^.r.o ",
"D.G.G.D.G.D.G.^.(.(.G.P.U.:X-X>X;XsX0.2 v 7 7 7 0 0 r w w y 0 0 e q w w 0 q r 0 0 = 0.$XaXaXiXiX|.8.C.Z.D.D.C.C.l.h.j.l.F.G.3.o ",
").I.Z.G.F.G.T.^.(.T.Z.L.@X@X-X;X;X-X0.= - > % : : : : 1 : : 1 : : - 5 : > > > > : = 0.|.>X-XsX;X:XU.7.j.j.j.l.l.h.h.r.Z.G.G.' X ",
"'.T.F.G.G.^.G.G.^.G.Z.L. X{.&X&X&X-Xd.* - , : : : : : & : 7 % % 5 & & : > > > > = * <.}.>X-X&XOX Xv.[ 4.g.e.h.j.e.y.h.z.G.F.E   ",
").Y.D.D.T.G.G.D.T.D.C.v. X{.{.XX&X-Xd.2 - & & : & = : : : % % % : & & & : : : & - X 0.}.;X&X&X+X&Xs.( 3.r.e.r.e.6.6.l.F.G.h.E . ",
"_./.l.Z.z.Z.Z.l.C.l.j.x.{.+XXX=X=X:Xs.p * = & : : : , : < q , < 6 - & ; - 5 , - 2 * <.}.>X>X&XXX Xs./ y.e.w.w.2.5.g.l.F.h.E E o ",
",.j.7.7.h.h.7.y.i.y.,.s. XXX;X;X;X>Xs.z Z M m N N N N N N N N R N N N Z M N A N N M a.|.sX X;X&X{.a.( 3.7.,.} } :.k.7.3./ E T o ",
"p ] / ] E z W E E x k <.].{.@X;X;X>X}.u.8XwXtXeXeXtXeXtXeXtXeXeXeXeXeXeXeXyXtXtX8Xu.a.}.uX-X-XXX Xa.d / :.*.[ ' / / a 4 + o o . "
};