/* XPM */
static char *out[] = {
/* columns rows colors chars-per-pixel */
"64 64 99 2 ",
"   c #2C2F2D",
".  c #2D322D",
"X  c #31362F",
"o  c #2E3431",
"O  c #313731",
"+  c #343B34",
"@  c #393E37",
"#  c #363C38",
"$  c #393E3B",
"%  c #3C423D",
"&  c #40453E",
"*  c #43483E",
"=  c #3E4541",
"-  c #414643",
";  c #444B44",
":  c #484F47",
">  c #454D49",
",  c #484F49",
"<  c #475047",
"1  c #4B534C",
"2  c #4E5551",
"3  c #505751",
"4  c #535B54",
"5  c #565E59",
"6  c #585F5B",
"7  c #576056",
"8  c #596057",
"9  c #57605A",
"0  c #5B635C",
"q  c #5E685F",
"w  c #61695E",
"e  c #5D6562",
"r  c #5F6861",
"t  c #616765",
"y  c #636B64",
"u  c #666D6A",
"i  c #686F6A",
"p  c #667166",
"a  c #697367",
"s  c #67716A",
"d  c #6B746C",
"f  c #6E796D",
"g  c #717A6E",
"h  c #6C7571",
"j  c #6F7973",
"k  c #737C74",
"l  c #717779",
"z  c #747D79",
"x  c #787F79",
"c  c #778176",
"v  c #798276",
"b  c #77817B",
"n  c #7B857B",
"m  c #7E897E",
"M  c #818A7E",
"N  c #778080",
"B  c #7B8682",
"V  c #7E8A82",
"C  c #838E83",
"Z  c #838E8B",
"A  c #859186",
"S  c #889286",
"D  c #86938A",
"F  c #89968C",
"G  c #8C998E",
"H  c #909A8F",
"J  c #8A9691",
"K  c #8D9B93",
"L  c #8E9E99",
"P  c #919E95",
"I  c #919F98",
"U  c #8FA097",
"Y  c #8FA099",
"T  c #92A096",
"R  c #94A39B",
"E  c #99A69E",
"W  c #96A89F",
"Q  c #99A89F",
"!  c #96A6A0",
"~  c #99A6A1",
"^  c #97A9A1",
"/  c #9AABA4",
"(  c #9DAEA9",
")  c #9CB0A7",
"_  c #9EB1AB",
"`  c #A0ADA6",
"'  c #A1AEA9",
"]  c #A2B0A5",
"[  c #A3B2AC",
"{  c #A8B5AE",
"}  c #AAB8AF",
"|  c #A5AFB0",
" . c #A3B5B1",
".. c #AAB6B2",
"X. c #A6B9B6",
"o. c #ADBAB6",
"O. c #ADBBB9",
"+. c #B2BEBC",
"@. c #B2C3BF",
/* pixels */
"  > h z a 6 * ; 0 u 9 5 i h i l h t 3 t d y u 0 2 > 4 e r e 2 O O 1 e 3 2 6 e u i 0 2 $ - 1 : 1 2 d b d 2 t r e 5 = 2 u h d -   ",
"O ~ ..R T R E / ` / ` o.[ [ ..+.+.[ ~ ' ' ' R R R R R ! / [ P 4 e | +.[ ] ] ' { ` E C 9 V [ / R ~ ~ ' ' ) / R R ' ' / K K E J - ",
"> +.P S F G R / / / R ( ( ( ~ ~ ( E Y T K K D G J D D J G U D 4 e | | F C Z P D D D n d K P D D Z D F K J D J J K K J D C S C # ",
"t ' F G H T P R R E E R ( ( / ~ / / T K K J F D F D D D J U m 1 e ~ I Z A M C m C F m x I P D A A D D F G D D F J J D C C C M O ",
"e ~ T R / ( R R R R R R R ~ ~ ~ W T T K K D D F D D D F S A m 1 0 R K A C m M n A K n b ~ I D A C D C D F F A A A D A C C D m O ",
"4 / T T ( [ / R R T T K I R / R R K G K J D A D D A D D D A m 1 e I F A C A A A F F k k R K D D A D C F F D D D A C C C C C C @ ",
"3 ` T P ^ ) / R T K T P P R R R T K J K J F D D Z A D D D D V 3 y I F A D D S D D C y g R J K J F F H D A A D A A M A A C D C - ",
"3 ` ~ P T ^ ^ ! R U R I P P R R R R T K J G J D F F A A D J V 3 i I F D G K J S F v t Z ` K K J K G F F A A A D A A A A A F m : ",
"- ~ R K U R W R K K T I I P P I R R R T P J J J D D D V F F M 1 w K S G J K D D V s b ' ~ K J J J J D D A S A D D A D A D D m < ",
"% E R T K T T T J P E T T P I I T R T P T J A C D D V D D D k : 6 H S G L L D V d j ' ~ Y J D D J D D D A C D S A D S D J U D % ",
"4 / E R T U H T P T E ~ P R E T T T P K K F C D D D A V D A n 1 t H G Z I R D q k ! ! L K J J J J D D D G G K D A D D F T W T % ",
"h / W G S S H P H P R T R ~ R T K U K P F C D D D D D D A G M 1 t H C C ^ T q C R I L K L K K J K K J J K J D A D D D G T T S % ",
"x ! I F m m S G H G G P R ~ I K J J J J A C D D D D D D J I M 1 i S v M S y V / I I K K K K L L U U U K K U J D D C D K P P D % ",
"B ~ T P U M M S P G S S C F D D C D D D V M A G J J J J K G M 1 i P S f 0 c } K L I K K K Y Y L Y Y L K K U D D C V V K T T K 1 ",
"C [ T F S A S T T G M A D J J G D C D D A C S R R U K J K P m : 3 x w 4 J ] R P T R I U L Y T R R L J D J J D A A C D I ! ^ K @ ",
"u ] T G M U Y ^ Y S m A D J K U Z u C G D A G R K U J J P R m 1 - 4 d ` / K F P T K J K L Y T ! Y K G D A J J D C C K R ^ ) G O ",
"4 ' U R W R G R R S M A F S G R D t i Z A S I T K K K G C b y ; % h / [ R J D T U K J T T K G G K D V A K T K F C A U R / _ D + ",
"0 ` G G R T F G H M C S S C F T K y 3 d k C F P R J D b k d 5 % 6 ' ..W R I K U K T T R R K C J Y G K K ! T J C Z A J R / _ D = ",
"u ' P A F H S M M x M S S C P R D y d F y 0 y M D n g B J I H 6 N o./ R T T G K K T T E R G L ^ ^ ^ T L T K D A A D K R / ) D 4 ",
"i ' S M M C M c v M x M v k v k i c h k y a 0 8 d h J ' [ ` H 3 h ( / R Y T G U T K P R P T / ( ( ^ R I Y Y K D C D R W / ^ D 9 ",
", g 6 y c v n c M S M M M k k d 5 C b V J b 5 % i J ' ` W W A < u ~ ! ! R Y U U F F G G G R / / ( ! K U Y R U D F K T R / / A < ",
"% k x n A H P F M M M M F K G P b d x ~ [ J y y ~ ` K K R R b - u ' / / ^ ^ W U D T T P T ^ ^ / ^ Y K U R T U J G K K R ^ W A % ",
"u | I S D P T R H S M C C F P T F u f / / C r P ' R K D P T n < i  .[ / ) W U K U Y R W ^ ^ ! ! ! L Y R ^ L J K G F G T E R C % ",
"N ..C S F P I I F C C M v M P R m 5 9 b k 6 m / ! R R K G G m 1 u ( / R T R R W W R W R ! ! R K L L ^ ^ R J J J G G K T T T m ; ",
"e Z k M S G J J V M A v M F P D j h h u 3 k P P I I ! ! T J A 4 s ~ / / / ) / / / R R R ! Y I J K U Y R R Y K G J K L L K E A + ",
"- P x M A G Y K F S S M S H C k Z O...' z C D P P R ^ R ! R D 9 z [ [ / / ) ) ) / R J L L L K F K Y J ^ ! R T K J J K K K U M @ ",
"* E S F H R R P G M M v C F d j o.E T P j F R R R / ^ ( R U F 0 z ' / / / / ) ) ^ T K K L K J K J J J R ^ ! U U Y K K K K K c o ",
": ` P H H T R F M m m M S f 0 ` / P K m f R [ _ ( / ( ^ W R S 8 B [ / / ^ W ) ^ ! R I I I I J J J K K R ^ ! U K K K J K T U f . ",
"; | ~ I E H H F G G F C d q M ` P G / K k R _ ] ( ' / / R T v 4 V o.) ) ^ ^ ) W / W R R I P K K J U T E ( ^ Y Y R Y K K R F p . ",
"- ` I K H S M F G S v w 0 p ` P F G R A d ~ [ / ^ / T / / K g 1 B @.W W W ) W W W E R R I K F D G K T R ^ K J K U U K G T m a X ",
"& M S M k x x g c p < 1 k C H M M S S n 0 D R D D G A F D k w ; u P V n V m m m A F F F F Z m c k n m A C c c m A V A m v g p @ ",
"X 1 3 4 ; : 1 * < * X 4 0 1 1 4 6 4 7 7 ; 5 e 5 q 0 2 4 9 1 ; + $ 9 9 9 q r 9 1 3 1 1 9 0 9 5 > < 4 5 4 9 9 9 q y 0 4 4 1 - % . ",
"@ z N N d t y y y d h b b k a p k j h k t 6 z c b z d h k f 0 % - d Z Z J Z B h 5 $ i B B B h e i z z z b B B V V B z z s u 3 o ",
"6 ..[ ' ` E E E E ~ / / ` / E ] { [ ' ] D j ( [ ' / R E ( / m ; u ..../ ( ~ E P i u ..O.` ( ~ ~ ' ..( ~ ' ( '  . . .( ~ R ~ C - ",
"e ..R ~ ~ E I P P I T R R R R R / R R E A y P [ / R R / ~ I c < B +.~ I R R K F d J +.' K K K I I ~ I I Y Y Y ! R R I K K I C , ",
"e ' J P P J F S G H P R R ~ R R R R R W K f 0 s C { ( ~ / R m ; B O.! I R E R D k I  .R J J J K J J I K K K K K I I J J J J n $ ",
"6 | J J K P G F Z F P T R T W W W W / ) / T V k t c O.( ( / Z 1 z ../ R R E R D d I [ I J D J D J J K F J J J K Y Y J J J J Z @ ",
"2 O.K J F F F H F F P R T T W / / / / _ _ / R T c 9 ..X._ / v > z [ / / T R T V q K / I U U J J J K P K L Y Y L K L Y R I I P : ",
"$ ' I J F S S F J F P P T R Q Q ( _ _ [  ._ / T D d z @. .Y d , k ' / R R R R f 0 P K K Y U J J P I I R R T R R K K R ! ^ R D $ ",
"O I ~ K K D C F P I T I R T R Q / ( _  . . .[ ) / V 0 O.X.T f ; z [ / R R K m y d [ J J U Y T Y I R R ! ^ W ^ Y R L T ^ / / M + ",
"$ ` E J F J F D G P T R T U P T / /  . . . ._ _  .^ f J  .E d % z | ~ R K f p 9 ` ` I I U K T T R R Y ^ / ^ W W R K K Y ^ / m # ",
"> ..I K K K K F P G H T R R P P E ( _ _ ) ) ) _  . .U f F K d = j I v k f 9 0 ~  .! R I K K T Y R R R ^ / / ^ W ^ ! R Y Y ^ F < ",
"e [ E P K K I P T K K Y Q / R P T / ( _ _ _ / /  . .[ J f w 0 = 9 w 1 0 r @ n ../ ^ I I K K K L Y R W ^ ) ) / ^ ! R R R T / G % ",
"h ' I K L I I I T K T W Q ] / E / E /  .X. .) ^ _ _ [ [ K d ; # 4 d y y h r z ( ^ R R I T K K U Y R W ^ ) / ) ^ ^ R ^ ^ ! / F + ",
"h ' T K Y K Y P T T R ^ / ) _ ) / ^ (  .X.X. .^ ( / _ _ / S 0 % t H f u V R J ^ R R R R R T Y Y R ^ ^ ^ / ^ ^ / ^ ^ W W ! / C O ",
"t ( I T I Y U J G T ^ / / / _ _ / ^ ^ (  .X. .( / / ! / ) P w % , i c P R R R T L I T ! ! ! ^ T R ^ ^ / ^ ^ W ^ / / E R ^ ^ A % ",
"t ' T T R R P F F U ^ ) _ Y ^ ) / ^ ^ ^ _  ._  ./ R R W W K a < t J ~ ~ K T K K J K T / R ! ^ ^ ^ / ^ / R R ^ ^ W W E / / / A ; ",
"0 ..E R R R R K K K R _ _ ^ / ) ^ Y ! ^ ( _ ( _ ) K R E Q T c < V O.' R P J G D K K I ! ! ^ ^ / ) / / ^ / W ^ ! T / / / / W A 1 ",
"3 { E T P R W R T G U ) ) ) / R T K T / / ) / ^ _ Y / ! Q E m 1 b ( T K F D D G K K K T R W / ] [ ) W / ( ^ ( ! ! ( / / ^ / D 1 ",
"i ' / T T R / W R U R / ] / E W U U R ^ ) ) W W W T I / ) / A 7 k Y D A A D U J G K K K K R R / / / W / ) ( ! ! ! ! / _ ( / K < ",
"x ] T / E W W E R U T R W Q E Q R U ^ ) ) ^ W ) / I I ~ [ / G 0 b P A U T K K U J v C C A K T R R / / W ) _ / / ^ ! ( ( ) ) G % ",
"x ] E E E R R E E T R ^ / ^ / / R W / ) ^ U W ^ T P R P T G A y m G m G U T U U T F P G K T R K R / W ^ ( _ ( _ ^ ! ^ ( ^ _ m X ",
"i ] P R T R R W ^ ^ ^ ) ) / / / Q Q ) / E R / E P P P T P T M w C H M S V U K J D D U U U J K P R T ! ^ _ _ / / / ^ ( ) ) ) m + ",
"4 ` G T T T E / ( ( )  .[ _ ) / T E W T T E / T I K T H H G M p Z ` P F Y K J J A S D G K F K K U / ) ( ) _ ^ ^ / ^ ^ ) _ / m + ",
"$ E I E W R / ) _ _ _  . . ._ R T R R R R R R R I K P H F M M p J [ E I Y Y J S m S D J D D K P R ^ / ( ) / Y K ^ Y R / _ ) m + ",
"; ' ` E W / ) _  . . .X. . ./ T P H H T T P G K P P H H M M v p J ' / ~ R Y G V m V S D G K T T R E / ( ) ^ ^ W ^ R R ^ _ _ M + ",
"5  .( ( ( / ) _  . . . . . .( Y K F S D G S M M S F P S C A v y J ` ^ R ^ ^ J A D C F F K T K K R R / / / ^ ^ ^ R R R ! ( _ m . ",
"z  .( ( ) ) _  . . ._ ( _  .( ! P G H K U F n a g g S A S G n 7 Z ( ^ R W W U K K J K I K T U U K T R W ^ W / W R T T W _ / j . ",
"B ..) _ _ _ [ _  . .( ) _  .( ! T E Q Q ) T M c g f c v C D m 4 B ' ! ! ^ T R R L L L R L T Y K K G K K R Y R T U U T R _ R f O ",
"B X./ ( _ _ [ _  ._ _ _ ^ ( ( ^ E E E E R K S A M v c v A D m 7 B ' ! ! R Y R W ! R R R P P P K F A A D K K K U K K W ) _ G a O ",
"N X.( ~ / / ) / / ) / / ( ( _ ( / K R P H K m C M M M S F G v 7 n / R E R L ! ( ) ! R T T T P F m m M F L J J J D K W ) R c y . ",
"u ..~ R W / E Q / E R K ! / ) _ / P T G G S v v n n D G F m g r V ] W E / / ! ! / W T T E P H S m m S H K D V D G T U J m a w . ",
"- G V n m m m m m m c a v V V D m k g f g f g g g a a f a a d 6 B R G D A C C V m V M M M v v k v g k M A m m m v m k a w 0 < X ",
". % ; ; % o . O o . . % < < = % * & % % @ . . . . . . X . X @ O @ * * ; : ; + . % * * & % * ; % * + . + % ; 1 % + X . . . .   . "
};