/* XPM */
static char *out[] = {
/* columns rows colors chars-per-pixel */
"64 64 238 2 ",
"   c #0B0601",
".  c #0B0703",
"X  c #140B04",
"o  c #180D07",
"O  c #1D1107",
"+  c #1C130C",
"@  c #1C1713",
"#  c #220E06",
"$  c #22150D",
"%  c #291409",
"&  c #38180A",
"*  c #231A13",
"=  c #261B16",
"-  c #2C1D14",
";  c #341D12",
":  c #3B1E12",
">  c #3D210C",
",  c #27211A",
"<  c #2C221B",
"1  c #372316",
"2  c #34241B",
"3  c #3C261C",
"4  c #2C2D29",
"5  c #352B25",
"6  c #3C2B22",
"7  c #39322B",
"8  c #363A35",
"9  c #441D0B",
"0  c #4B1D09",
"q  c #541D0A",
"w  c #47240C",
"e  c #59250C",
"r  c #442414",
"t  c #472815",
"y  c #432C1D",
"u  c #4C2B1C",
"i  c #572A17",
"p  c #573315",
"a  c #57331B",
"s  c #67280E",
"d  c #742D0E",
"f  c #6F310E",
"g  c #73330E",
"h  c #682C16",
"j  c #683619",
"k  c #78371B",
"l  c #452B23",
"z  c #422D23",
"x  c #453124",
"c  c #4B3224",
"v  c #44342A",
"b  c #4C352A",
"n  c #46392F",
"m  c #4C3A2D",
"M  c #573827",
"N  c #553B2D",
"B  c #443B34",
"V  c #4C3C31",
"C  c #563D31",
"Z  c #663A25",
"A  c #783C24",
"S  c #3C433C",
"D  c #7E410F",
"F  c #6C421D",
"G  c #7C4516",
"H  c #5B402E",
"J  c #4B433B",
"K  c #5B4234",
"L  c #574539",
"P  c #664329",
"I  c #774527",
"U  c #654837",
"Y  c #6B4D3A",
"T  c #744A39",
"R  c #6C5137",
"E  c #76543C",
"W  c #3D4641",
"Q  c #454C44",
"!  c #484A46",
"~  c #564B43",
"^  c #4A5349",
"/  c #4C534C",
"(  c #59524A",
")  c #4E5551",
"_  c #535B54",
"`  c #595C57",
"'  c #654E41",
"]  c #6B5344",
"[  c #67564A",
"{  c #775A47",
"}  c #75584C",
"|  c #675C53",
" . c #5C635B",
".. c #5B655A",
"X. c #76614D",
"o. c #68645B",
"O. c #7A6759",
"+. c #5D6561",
"@. c #646B64",
"#. c #676C67",
"$. c #776C64",
"%. c #697166",
"&. c #697368",
"*. c #6C746B",
"=. c #75776C",
"-. c #6E7673",
";. c #747D73",
":. c #7A7B75",
">. c #863919",
",. c #933C18",
"<. c #853D24",
"1. c #903E20",
"2. c #87471A",
"3. c #96541C",
"4. c #A8491A",
"5. c #B1541B",
"6. c #A9621E",
"7. c #884924",
"8. c #964826",
"9. c #84562A",
"0. c #995529",
"q. c #894A33",
"w. c #885538",
"e. c #99573A",
"r. c #A54D23",
"t. c #A65B28",
"y. c #B85B27",
"u. c #A65935",
"i. c #966435",
"p. c #AA6628",
"a. c #B8682B",
"s. c #A96936",
"d. c #B36F38",
"f. c #B87837",
"g. c #C1661F",
"h. c #C76625",
"j. c #C87732",
"k. c #885C43",
"l. c #975F45",
"z. c #8A6446",
"x. c #986747",
"c. c #856A57",
"v. c #947050",
"b. c #A76846",
"n. c #A9734C",
"m. c #B97A46",
"M. c #AA7759",
"N. c #B47A58",
"B. c #8A7668",
"V. c #8A796D",
"C. c #957B68",
"Z. c #AB7A64",
"A. c #C57D4D",
"S. c #798276",
"D. c #768178",
"F. c #7C857B",
"G. c #7E897D",
"H. c #BC8137",
"J. c #C88439",
"K. c #E0873E",
"L. c #A7845B",
"P. c #BB875D",
"I. c #99836B",
"U. c #86867B",
"Y. c #828B7E",
"T. c #968578",
"R. c #A98267",
"E. c #B8856B",
"W. c #A38B75",
"Q. c #AD9178",
"!. c #C68849",
"~. c #D78846",
"^. c #CE8D54",
"/. c #E5954D",
"(. c #D8A359",
"). c #EAA35D",
"_. c #C58968",
"`. c #C89568",
"'. c #D0956C",
"]. c #C99A75",
"[. c #DBA47D",
"{. c #EBAD71",
"}. c #6D7D83",
"|. c #7C8682",
" X c #7E8A81",
".X c #838D83",
"XX c #888D86",
"oX c #9B8E86",
"OX c #859186",
"+X c #899286",
"@X c #86938A",
"#X c #8A958C",
"$X c #8C998E",
"%X c #95978B",
"&X c #8A9690",
"*X c #8D9B93",
"=X c #8D9C97",
"-X c #919E95",
";X c #9A9D93",
":X c #929E99",
">X c #A59787",
",X c #B19C90",
"<X c #8FA099",
"1X c #92A096",
"2X c #94A39B",
"3X c #99A499",
"4X c #9AA59D",
"5X c #9AA89F",
"6X c #BAA48A",
"7X c #A6A599",
"8X c #B9AA98",
"9X c #949EA4",
"0X c #96A6A1",
"qX c #9AA6A1",
"wX c #96A9A1",
"eX c #9AABA4",
"rX c #9CAEA9",
"tX c #9FB1A7",
"yX c #9EB1AA",
"uX c #A2ACA5",
"iX c #A9ACA5",
"pX c #A2AEA9",
"aX c #AFADAC",
"sX c #A2B2AC",
"dX c #A7B2AD",
"fX c #A4B5B1",
"gX c #A9B7B4",
"hX c #B1BDBA",
"jX c #CB9C87",
"kX c #CDA98D",
"lX c #E5B78C",
"zX c #E8B896",
"xX c #EDB894",
"cX c #CEB9A2",
"vX c #E5C4AB",
"bX c #F3D0B2",
"nX c #B8C2C4",
"mX c #D3D1CC",
/* pixels */
"8 +.;.;.+...S _ @.#. . .*.-.-.}.-.` ` @.-.#.@.+.) ) ` +.#.#.) 7 8 ) @.) ) +.+.-.@.+._ 8 Q ) / ) _ #.F.-._ @.+.+.+.Q ) #.-.-._ 8 ",
"+.hXuX:X1X3X2XwXuXwXdXgXrXpXhXhXhXqXrXrXpXeX2X1X2X2X2X9XoX9X9X! ) nXhXaXpXpXpXpXrX5X.X^ &XrXqX2X2XqXeXrXtXwX<X0XrXrXqX=X*X-X-X) ",
"XXpX@X@X$X#X7X5XrXrX2XpXrXrX4XqXyX=X<X<X=X*X@X*X&XOXG.$.$.V.oXV.}.nXaXXX.X@X&X#XOX#XG...qX:X@X@X@X@X@X=X&X@X#X$X=X=X$X@X.X@X.X) ",
"qX-X*X*X1X1X1X2X2X2X2XwXeXrXqXqXtX2X2X*X*X&X@X@XOX:.` [ | V.T.T.C.oX9X|.XXY..X|.OX$XF.-.qX*X@X.XOX@X.X$X#X@X@X&X$X&X@X.X.X.X.XQ ",
"=X:X-X3XrXeX2X1X2XwX2X1X0XeX0X5X2X1X1X*X@X@X.X:.*.~ B ~ V.V.c.' ' V.B.XXXXY.F.F.+X1XU.D.wX=X@X X.X@X X@X#X@XOXOX@X@XOXOX XOX.XQ ",
"&X2X:X4XfXyX0X2X2X1X1X*X&XqX2X2X<X&X$X*X&X@X@X;.( B $.V.C.V.} ' V n ' B.oX>X;X#X+X#X=.-.2X=X&X@X@X.X.X$X$X@X@X@XY. XOXOX X.XOX^ ",
".XqX-X:XrXeXwX2X1X*X1X-X1X2XqX2X1X*X&X&X&X.X$.( ~ | ( } B.b C.C.c.V N ] B.B.>X;X@XY.#.*.:X*X&X&X$X#X%X@XOXOX@XOXOXG.G.OXOXOX@X_ ",
"@XrX-X=XwXeX5X2X2X=X2X=X-X-X2X2X2X2X=X&X&X| 8 < J V v L C L B.V.} C V B.V.C.C.V.XXF.` @XqX=X&X*X&X$X*X@XOXOXOX@XOXOXOX@X X#X Xo.",
"D.rX*X*X*X5X3X1X=X&X2X-X1X*X-X2X3X2X<X<X*X X! 5 J = 7 - 6 V ] ' O.[ 3 B.W.oXc.V.V.#.-.aXrX&X&X&X&X*X@X@XOX@X.X@X@XOXOXOX X@X X..",
"@.wX1X=X<X1X3X*X#X-X3X-X:X*X1X1X1X2X1X1X=X|.( 8 5 = 2 = = v b C c.Z.l b } c.' C ( :.uX0X=X&X X&X@X@XOX#XOXOX@X@X@X X@X@X#X$X@X..",
".X0X5X1X<X$X*X-X-X5X5X2X=X2X2X1X2X1X1X@X*XF.~ 7 ! L C - $ l ; C v.vXx.: C C v 6 o.9XqX=X*X=X&X&X&X@X@X@X$X.X$XOX@XOX#X@X$XeX2X_ ",
"0XeX1X@X@X$X*X-X%X1X2X2X1X0X2X1X*X=X=X*XOX%.= 7 o $ = # $ r M v.Z.{ M : l l m 2 ~ &X=X=X*X*X*X*X*X&X#X&X=X*X#X@X@X@X@X$X3X1X1X^ ",
"qX2X:X@XF.@X#X$X$X$X$X*X0X2X-X&X&X&X*X&X|.| = @ + o a V o i b.N.w.; O.Z : $ 2 V | &X*X*X*X*X=X*X*X=X<X=X*X1X@X@X@X.X@X#X1X1X$X_ ",
"qX2X-X*X@XG.Y.%X*X$X+X#X@X$X&X@X@X@X@XOX}.}.! + - = { B.; { N.xXkXC k.E.M 3 : ; @.=X*X*X*X=X:X=X<X<X<X*X*X<X&X@X.X.X.X&X<X<X=X..",
"dX2X-X#XOXG.$X1X*X+X.XOX@X$X&X@X@X.X@X@XXXXX#.= l l b.M.A.'.[.bXbXxXxXxXz.w.l.b $.=X1X*X<X1X2X0X0X<X*X&X*X&X#X XOX X X:X2X2X2X_ ",
"qXqX-X@XOX1X<X5X<X+XG.+X@X&X-X=X|.#.#X&X@XXXXX| M k.E.A.[.[._.xXbXbXbXbXE.].U #.@X*X*X*X=X1X2X<X<X=X=X X X&X&X@XOX.X$X0XwXeX2XQ ",
"#X2X1X5XwX=X*X0X1XOX X+X@X$X*X-XG./ @X@X#X%X-X#XJ c Z.n.N.N.b.kXbXzXzX[.U z x U.-X$X$X-X1X1X1X@X*X&X XOX#X1X*X@X XOX$X2XwXyX<X^ ",
"-X2X$X-X5X-X#X*X$XG.OX+XOXOX-X-X X_ _ @.XX%X-X*X;.8 l w.l.M.b.'.lX[.`.i.1 * o.#X-X1X8X3X3X*X.X$X<X X*X*X1X<X*XOXOX@X$X2XwXyX*X_ ",
"4X4X@XOX*X+X+X.XF.S.Y.+X+X+X3X-X@X_ XX>XZ.X.=.OXXXB o : A q.b.E.`.n.P ; > w.$X*X-XR.[.cX5X$X$XwXwXwX<X=X<X<X@X@XOXOX&X2XwXyX&X@.",
"qX:X+X.X+X+XY.:.F.F.Y.Y.S.OX#X.X-.-.oXE.7.k ( %.o.r X   o u A A I > y 9.f.P.-X1X>X~.j.[.cX3XwXrXrXwX2X<X<X<X$X@XG.#X<X2XeXeX$X*.",
"XXF.*.;.=.&.&.%..XS.S.U.*.| ` ( #.,XE.u.,.1.T J [ Z j : O y j I d.s.H.f.d.L.;X3X`./.K.K.{.cXiXtXrX0X1X<X1X1X<X@X X*X1X2XeXeX$X..",
"! _  .F.#X3X1X#X.X+XY.+X&X-X-XoXZ.'.b.r.r.4.,.U ] T Z 2.2.3.p.p.p.m.P.M.n.n.P.P./././.K./.{.cX8XrX<X*X*X<X<X<X<X$X1X*X1X5XeX#X_ ",
"&XdX;X.X@X1X1X*XY.Y.U.+X@X-X9X,XjXA.d.a.y.4.,.h Y T T I I w.w.w.x.z.z.v.M.M.e.~.j.).{.{.).).lXcXwX2X2X<X5X<X&X&X*X$X$X1X5X5X.X_ ",
"gXqX.X+X=X=X2X-X#XY.Y.Y.Y.XXW.jXZ.u.y.y.4.,.>.1 2 x c M I E i.x.x.z.z.v.v.z.I.n.~.!.).{.{.~.^.bXkX1X5X5X2X*X#X&X$X@X$X-X2X2XOX_ ",
":X.XF.@X*X&X*X*XF.Y.Y.S.U.Z.Z._.u.r.8.r.4.1.h V v v ; ; r p a F p I { I.6XQ.8X6Xx.lX!.'.A.K.~.).vX`.3X2X2X<X&X&X$X*X*X=X<X5X#X_ ",
":.F.;.F.#X*X=X&X.XOX.XF.oXb.l.<.1.1.1.,.,.d b L V ~ ~ i F G p.P.!.`.W.W.W.I.Q.8XI.w._.N.d.t.r.r.b.A.7X1X2X2X<X*X&X$X*X=X*X*X@X^ ",
":.-X.X+X*X1X2X$X+X@XY.S.,XT Z i i e e i e r V C 2 v K I p.H.!.(.H.'.c.B.B.6 | I.I.P g d d f j j 7.k.3X2XwX2X<X1X*X&X*X*X*X-XG.Q ",
"|.uX#X#X1X3X2X@XY.G.S.G.}.` < = @ + # & : 2 V l # % Z A i.f.J.H.!.`.`.E j & & L c.X.; * v 5 = < B =.*X<XwXwX<X*X*X*X*X&X=X2X;.S ",
".XpX=X2X-X-X$XOX#XOX+X.X:.0X}.B 8 5 4 @ . < C u % # b Z k t.p.J.d.m.x.w.5.0 0 T C.B.< L mXaX( ! }.qX2XqXwX2X2X<X<X1X*X*X2X1X;.8 ",
"F.rX=X:X*XY.OX-X1X$X.X%.-.gX}.` ! S 8 < X = N q & X l h k 8.0.a.s.b.k.t.5.w & 0 Z v $ M B.mX:.( -.nXqX4XtX2X<X<X2X2X1X$X1X$X*.8 ",
"&.;X*XOXY.Y.S.+XG.%._ ^ nXfXoX$.~ J V < X 5 k.i X   r u i k 8.d.0.e.w.y.4.% X q N.].3 { W.I.=.` | 9XdXqX1XG.G.G.#X$X1X-XOXG.;.^ ",
"/ @.*.o.o.&..._ ..Q S 7XoX-.o.| } ' l # = l.l.q     = u i j 2.0.8.e.9.4.d     o w.lX6Xa F C.Q.V.$.oX8XiX-.%.@.*.D.;...&.%._ ^ 8 ",
"8 W ! 8 8 8 8 8 8 8 ` 8X] ] } Z P i.s.9.N.N.q.#     $ l [ ] I 0.8.w.i.y.f X     r `.lX(.J.lXL.w.L.i.L.7X| ) +.` +._ ^ W 8 8 8 4 ",
"&XhXhXhXpXuXqXeXqXaXjXZ.8.2.<.,.2.I I G 3.t.A m C { V ^ ` | C.I.W.Q.W.L.z.] U + # 3.p.H.J.J.~.j.6.g.f.lXmXaXfXgXgXgXfXfXrXpX9XQ ",
"qXrX2XqXrX:X3X;X9X;XZ.e.8.8.1.1.2.j I D 2.f w V C C B J o.| X.O.c.c.C.c.b c { 1 O e 2.p.H.p.j.j.h.h.g.h.cX7X0XwXwXwX2X=X&X:X&X+.",
"=X9X-X9X-X-X+X#X*X%XM.q.q.1.1.<.>.i G j 3 ; = | b N = Q o.| J V J v 7 ] m y E ( O # 1 P H.p.a.h.h.g.g.a.cX:X*X=X:X:X&X&X&X&X.X_ ",
"9X=X&X-X-X#X%X@XXXXXv.<.<.<.<.k h i 7.M 2 o + v c z @ ! }.) = = m | | L 2 m N m X . $ c v.^.8.y.y.5.4.r.jX:X*X&X<X1X*X&X&X#X.X/ ",
"=XqX&X&X&X#X*X#X@XXXk.A k <.>.h u P 2.y $ X @ n m 2 + 8 B 6 * : 3 b c.r O c E x X X X 2 R n.i.>.4.5.4.y.Z.-X*X*X*X<X*X<X=X=X-X .",
"|.eX&X&X$X@X&X&X#X#Xc.A h k h h a c x 2 o o = z 6 - ; 4 & & q s f e [ w.9 b Y C O X X + x R v.0.4.4.A.r.C.-X:X:X*X*X<X2X2X2X-X` ",
"@.pX=X&X&X.XXX&X&X9X&X<.<.h i I a c z 2 $ X = 7 l = 5 & 9 0 q s s d t L 2 c P C O . < H R E i.s.>.A.b.e.%X2X0X0X<X<X1XwXwXeX$X! ",
"#.fX*X#X#X#XOX$X$X1X3XB.7.k e P p N C C 3 o X @ - - > 0 0 & & & 9 q s s & 3 H M X X 3 R c.{ 7.0.A N.0.T.wXwX2X2X2X*X*X<XwXtX X^ ",
":.rX*X*X*X&X$X#X-X$X$X%Xk.i 9 M t v b n 2 o   X : w e e s & X   % q d >.w # - $ . O 2 x C U I 9.i A c.1XtXwXwXwX2X2X<X<X<XwX*X .",
"&XeX=X*X*X=X=X*X1X$X-X:XXXN : M > 5 x x 1 ; o O > e f f s &     X 9 s >.e > e O o u u 3 b N Z I i Y $X5XwXtXeXwXwX2X<X<X=X2X*X .",
"9XeX1X*X*X1X:X-X-X-X=X2XqX.X| M x 2 1 Z q.Z z 3 w e f g s %       % 0 f D g g & ; e.i.I y 6 H U $.XX<X2XtXtXeXeXwX2XwXwXwXwX*X^ ",
"eX0X*X1X<X1X*X<X=X-X2XwXeXeX2X=.~ N u A b.A [ *.1 u j f f O X X X % 9 e j k F 3 *.Z b.q.a U [ ;.$X1X0XwXtXeXeXwX5X5XwXwX2XeX=XQ ",
"=X0X1X1X=X1X=X*X-X2X0XeXrXyXsXqX*X XO.U { } &X=.R L 6 u u O X X X o : 3 y H E S.%X=.{ ] O.XX*X*X=X0XwXwXwXwXwXwXwXwXeX2XwX0X$X^ ",
"=XqX1X<X1X1X*X@X=X2XeXtXwXwXyXyXwX2X2X-X4XrX;Xz.x.X.H t t @ + + + $ - 9 z U L.L.%X$X*X1X2X2XwX2X2X5XwXwX5X2X2XwXwXwX5X2XwXrX@X_ ",
":XeX1X2X3X2X=X#X&X2XeXyXyX*XeXeXwX2XwXeXyXrX;X9.i.P H p R S.J , ( |.n & 6 M i.s.oX$X1XwX0X0X0XeXeXrXeXqXwX2XwXeX2XwX2XeXrXrX@Xo.",
"&XpX2X-X1X2X2X1X<X#X5XrXrXrXtXwX<X1X2XwXtXtXU.F F c H p R %X&.4 3X3Xy w 1 y F I T.$X1X<X2XwX5XeXtXrX5X5XwXwXwXwX<XrXwXrXwX0X@X@.",
"#XpX2X-X1X5XeX<X1X<X5XwXtXeX2X<X1X<X2XwXeX5XX.p > y i.6.3.3XS.S 3XU.p 2.F 1 y F L.$X*X1X<X2X5XtXyXrX2XwXrXtXrX<X0XrXeXwXrXrX-X+.",
"5XuX2X3X2X2XwX5X1X<X1X5XeX2XwX5X1X<X2XtXtX2X] w w F G D 9.3X XQ ;XO.p p G F t 2.v.Y.$X#X*X*X2XeXeXeXwXeXtXyXwXwXwXwXrXrXrXeX2X_ ",
"iXeX2XqX5X2X2X5X2X<X1X5XwXwXwX5X<X2XeXeXeX*XG.M > w w w R 1X@XQ 3XY.6 > > w w P Y.Y.@X.X@X<X1X*X2XwXwXwXrXyXrXeXwX2XeXrXrXwX-X^ ",
"uX5X1X2X5X<X2X2XwX<X2XtXrXwXwXwX2XeXeXtX2X1X*X_ $ + * < Y.1XG.S 3XY...* $ * - o.OX$X$X1X*X*X1X1X3X5X2XeXyXyXeXyXrXwXtXeXeXyX@XQ ",
"1X2X<X1X1X2X2XwXrXwXrXyXyXeXrX5X5XrXeX1X2XwX1XJ < 2 2 ( $X1XG.S iX5XY.7 - 6 H [ G.$X#X1X<X&X*X*X1X2XwXeXyXyXeXwXeXwXeXeXtXyX.X^ ",
"F.1X*X2X1X5XtXtXrXtXyXfXyXyXrX2X2X1X2X2X1X2XG.m H m b U.-X+XY.S pXpX$X..< z C U U.OX#X$X#XOX1X*X1X5XtXrXyXtX2X&XwXwX2XeXyXrXOX^ ",
"-.5X5X5X2XwXeXyXyXyXfXgXfXyXwX1X1X1X3X1X2X.XL H R K L OXY.Y.S.S iXgX2XOX2 6 N U R Y.#X@X@X$X1X1X2XwXwXyXtXwXwX<XwX1X2X2XsXtX#X^ ",
"@XsXwXwXwXeXyXyXfXfXfXfXfXfXwX X<X+X$X1X$XJ < 1 C K { -XG.Y.*.S dXsX2XXXb z z z x J G.+X$X1X1X*X1X5XwXtXtXwXwXwXwX2X2X<XtXyX=XQ ",
"2XyXrXrXrXrXyXyXfXfXyXyXfXfXyXrX#X+XOXG.Y.c.I H b m U T.OX#XS.S dXrX2X| v 3 y P i.W.;X$X1X1X1X$X1X<XwXeXeXwXeXwX0X1X<X2XrXyX@XS ",
"fXfXrXyXyXrXfXfXgXfXyXwXfXyXrXwX&X3X3X6XP.f.p.6.P z x ] +X$XD.S uXeX2XV 2 - a 3.6.!.].kXuX1X1X1X*X*X1X2X2XwXwXwX1X2X1X2XyXyXD.S ",
"gXdXtXyXyXyXyXyXfXyXyXrXyXfXwXwX2XuXW.w.0.H.f.6.I c 3 J G.$XD.S qXuX=X5 * < i 2.3.p.P.m.6X5X1X$X&X&X&X&X*X1X<X<X=X=X1X2XrXwX;.Q ",
"fXrXeXrXtXyXtXtXyXyXyXyXwXrXrXwX<X2X:.~ R c.z.E U H 3 N Y.-XS.S 9XpX@X2 * 5 c N R { v.{ B.1X1X$X@XG.OXOX*X*X=X<X$X$X<XtXtX1X%.J ",
"pXpXeXqXeX5XeXwXrXwXwXwXyXyXyXyX2X&Xo.m N K R U R ( o.o.@X&X;.J 2XsX#X&.` ^ L L U U U Y O.+X-X#XF.G.Y.#X<X*X&X X X<X2XtX2XD.@.S ",
"&X0X:X-X1X1X1X1X<X1X$X X<X<XwXwX1X#X$XY.G.S.;.=.&.S.OXOX.X;.-.Q uXdX1XeX5X1X*X#X$X@XOXOX-X+X$XG.Y.G.@X$X&X X XG.$X<X$X XD.*.@.S ",
" .G.;.:.D.@.&.&.&.@...%.D.G.D.D.D.%.%.&.o...o...............@.8 .X@XG.F. XG.-.#.S.F.F.S.=.S.D.*.=.%...*.D.F.G.D.&.&.....^ ^ S 4 "
};