/* XPM */
static char *out[] = {
/* columns rows colors chars-per-pixel */
"64 64 154 2 ",
"   c #1D0603",
".  c #1D0905",
"X  c #1D0709",
"o  c #170909",
"O  c #1C0A0A",
"+  c #240604",
"@  c #2A0705",
"#  c #240904",
"$  c #2C0A05",
"%  c #220609",
"&  c #230A09",
"*  c #2C0B09",
"=  c #330A06",
"-  c #3C0C06",
";  c #330509",
":  c #330B0A",
">  c #3B0D0A",
",  c #2F110E",
"<  c #35100E",
"1  c #3C120C",
"2  c #340F13",
"3  c #380F12",
"4  c #361112",
"5  c #3D1212",
"6  c #3E1A14",
"7  c #3C101A",
"8  c #430B06",
"9  c #490F07",
"0  c #440D0A",
"q  c #4B0D0C",
"w  c #540E0C",
"e  c #590E0D",
"r  c #44120D",
"t  c #4B130D",
"y  c #4D190E",
"u  c #55110D",
"i  c #5B140E",
"p  c #5E180F",
"a  c #430F11",
"s  c #4D0F10",
"d  c #530F10",
"f  c #580D10",
"g  c #431413",
"h  c #4A1412",
"j  c #471816",
"k  c #4D1913",
"l  c #4C1719",
"z  c #541513",
"x  c #5D1311",
"c  c #531914",
"v  c #5D1913",
"b  c #541419",
"n  c #5B1618",
"m  c #541B1B",
"M  c #5C1D1A",
"N  c #62140F",
"B  c #6B140E",
"V  c #66180E",
"C  c #6C190E",
"Z  c #71140E",
"A  c #701A0F",
"S  c #621511",
"D  c #6C1511",
"F  c #631914",
"G  c #6D1912",
"H  c #671619",
"J  c #6E1719",
"K  c #641C1A",
"L  c #6A1D1D",
"P  c #721511",
"I  c #7C1517",
"U  c #721B13",
"Y  c #7C1C15",
"T  c #74171A",
"R  c #7B1719",
"E  c #741C1A",
"W  c #781C18",
"Q  c #572018",
"!  c #5E211C",
"~  c #64221D",
"^  c #6B251C",
"/  c #772116",
"(  c #7A2217",
")  c #742119",
"_  c #7C251A",
"`  c #7F281C",
"'  c #5B2121",
"]  c #652221",
"[  c #6C2322",
"{  c #732424",
"}  c #772A26",
"|  c #7B2922",
" . c #742D29",
".. c #792A2A",
"X. c #831E15",
"o. c #8B1E16",
"O. c #841E18",
"+. c #8C1F18",
"@. c #911F15",
"#. c #991F16",
"$. c #911F19",
"%. c #981F19",
"&. c #842017",
"*. c #8C2016",
"=. c #85231B",
"-. c #8B2119",
";. c #83291C",
":. c #8C291D",
">. c #942116",
",. c #992216",
"<. c #94221A",
"1. c #9A221A",
"2. c #932B1D",
"3. c #9B2E1E",
"4. c #9C301E",
"5. c #A3241B",
"6. c #AC261E",
"7. c #A12E1E",
"8. c #AE281E",
"9. c #B0281F",
"0. c #811F22",
"q. c #842622",
"w. c #8D2324",
"e. c #842B23",
"r. c #8C2B22",
"t. c #842D29",
"y. c #962322",
"u. c #9D2726",
"i. c #962C22",
"p. c #9C2E22",
"a. c #952F29",
"s. c #9F2D2D",
"d. c #843326",
"f. c #83302A",
"g. c #89302D",
"h. c #943226",
"j. c #9D3123",
"k. c #96312A",
"l. c #9B332B",
"z. c #99392F",
"x. c #8C3830",
"c. c #9C3531",
"v. c #953932",
"b. c #9B3933",
"n. c #9C383A",
"m. c #A12E21",
"M. c #A12E2C",
"N. c #B12721",
"B. c #B12821",
"V. c #B12A28",
"C. c #A03123",
"Z. c #A3342B",
"A. c #A63230",
"S. c #A23932",
/* pixels */
"U Y U Y Y Y U Y Y A Y X.Y Y Y X.Y O.Y X.O.Y X.X.X.v + = x x x B e f N f N B f N N N N x ; ; =.o.-.+.-.*.-.o.-.*.-.o.o.o.o.O.*.o.",
"U U U U U Y Y Y Y Y Y Y ( X.Y Y Y X.Y O.X.X.X.X.X.v + ; f x H f e B N N N N N N N N N x ; > =.o.+.-.-.O.-.o.O.-.+.-.*.o.O.*.*.&.",
"U U Y U Y U Y / Y Y Y ( Y Y Y X.Y R Y X.X.Y X.X.X.v + = f x N f e e N B D f N N N N N x : > =.o.*.-.-.o.-.-.-.+.-.-.-.O.-.*.&.X.",
"U Y U Y Y Y A Y Y Y Y Y Y X.Y Y Y O.O.O.X.X.X.X.X.K # * f N x N N B N N N N N D N S N f : g -.O.+.+.+.+.o.$.O.o.o.o.o.-.O.*.-.-.",
"Y U U Y Y Y Y Y Y Y Y Y Y Y Y X.Y X.O.O.X.X.X.X.O.F # = z S x N N x N N N N N N S N N H = r :.&.+.+.o.+.+.-.+.o.O.o.&.*.-.*.-.+.",
"U Y U Y Y U A Y Y Y Y Y X.Y Y X.X.Y Y O.X.X.X.X.O.n # : f N S N N N N D N N N N S N S x : = =.*.+.+.+.+.+.+.+.-.-.-.*.*.+.-.-.*.",
"U U U ( Y Y A Y Y Y Y X.I Y Y X.X.X.Y X.Y X.X.X.O.v + = x x N N N f N f N N N N N N N x : @ / *.+.*.+.+.o.+.+.+.o.+.o.*.*.&.*.o.",
"Y E Y U / U Y Y Y Y Y Y Y Y X.Y X.Y X.X.X.X.X.O.E h   $ z N N f N N D f N B N N N S S S = . - Y X.o.O.$.+.@.O.o.o.o.o.*.X.*.*.*.",
"S S S i S S S S N N D V S S D D P D D D D D D K h $ + + 0 d f f e e e e e e e e e f f q * . . - N G T T Y I U Z P Y U P Y P U U ",
"* $ * $ * * * $ $ = $ $ = = = : = : : : $ : = * # X   + + $ * * @ = * ; * * = * * * ; % + + . . $ $ < > : > : = = = : : = = = $ ",
"* # o o o o     + +   + + + % + # # # # # # @ + + @ % % # # + # . . X X X $ = = = $ $ $ = $ $ $ # $ $ @ @ + # # * > : , # . O O ",
"f. .6 . . . 5 v v M M K K K K K K K F ~ K K K K ] K L L L L ] K y = . # M x.b.b.z.b.n.n.n.n.c.b.v.b.v.v.v.v.z.z.c.S.n.b.d.r X & ",
";.;.} 1 # r K i i i i i i i p p i i p p N V V S x N N N N V S S J ~ # > c.2.2.2.3.2.3.u.i.p.3.i.3.3.3.3.2.3.3.3.3.2.4.2.4.f.: # ",
"_ ` | h # c u i i p i i i i i i i i i i i p i v x v p p p i v S S K * 1 l.2.2.3.3.3.i.p.p.3.4.2.2.3.3.3.3.3.3.2.3.4.3.3.j.k.r # ",
"_ ;.;.k $ c i p y p u p p p i i i p i i p v i V V i N N V v v S V S : - k.2.i.3.1.p.p.p.p.p.p.p.p.p.3.p.p.p.j.p.3.4.j.2.j.h.t $ ",
";.;.e.k # y i y i i i y p u u i p i i i v p v V i p N p S N V p v S 1 > h.3.i.3.3.p.3.p.p.p.3.p.j.p.j.p.j.p.p.4.i.p.p.p.3.j.t = ",
";.&.;.k # c u i p u p p y i i i c i i p v v N V p i S N S V S S S S r : i.p.i.p.3.i.p.p.p.p.p.p.p.p.j.p.p.p.p.p.p.p.p.p.p.j.t $ ",
";.;.;.c * c i i i i u p u i p i i i i i p p i v p S V v S S V S F S a = h.j.i.p.p.3.3.p.j.m.p.j.m.C.m.p.m.p.C.j.m.j.j.j.j.j.t * ",
";.;.;.k $ c i i u i i i i i p p i p p v p p S V V i N v N S S S S F > = h.h.p.p.3.p.p.p.p.p.p.p.p.C.m.p.m.p.m.p.p.j.p.s.j.j.k = ",
";.&.;.y + y u i c i i i i i u p i p p i i v V v i p N S S V S N S F g = h.3.i.3.p.3.p.p.p.j.p.p.m.m.C.p.p.p.m.C.C.m.m.C.j.j.t @ ",
";.=.;.k $ z i i i i u i i i i i i v v p v p N V N S p N N N N V V S r - k.h.3.3.2.p.p.p.p.p.p.p.p.j.j.3.3.7.m.4.p.3.j.4.C.j.y $ ",
"q.;.;.c @ z i i i i p i i i N i i v S v N N i v N v N V V V N V F F > - k.p.3.3.j.p.m.p.m.p.m.p.7.p.4.4.4.7.m.4.p.m.m.C.p.l.y = ",
"=.=.:.c + c u u u i i i v i i i i V S S N N N N N V S N V N V V V F 1 = k.i.7.3.p.p.p.p.m.m.m.j.m.m.m.C.j.j.p.m.m.m.7.p.C.l.y = ",
";.:.e.t + r u i i i u u i i i i i i i S i N i v S v N N N V N N V S 1 @ e.j.4.3.7.7.m.p.3.C.4.4.m.j.3.C.C.m.m.m.7.m.4.C.7.i.t @ ",
"K K v $ o # $ $ - - 0 r a q 0 r t q w q w q q q w q u q u q u u w r $ # t ^ _ _ _ ` _ _ _ ` _ _ _ _ _ Y _ / ( / / / ( _ _ ~ $ . ",
"+ $ # X o o       . . o   X + + # + + @ + + @ + # $ # # @ + # # # # O X # $ = = = : : = = = = : ; * : * * $ $ # # # $ $ * # . O ",
", < : 4 2 > < 2 4 3 < 3 3 3 * % % = 5 5 5 5 1 1 5 5 g 5 3 g 5 r g g j g g g g g j g j g g j h l m m m l 5 * . . & & , 4 5 < 5 7 ",
"v n n n n H F D S H H S H H b % = | 0.q.=.=.:.*.=.=.w.-.q.-.:.-.-.:.-.y.y.<.:.2.<.2.<.>.<.2.<.<.<.<.2.y.i._ 1 . . Q L E E U E E ",
"e e i e i i N e S N N e B e d * m &.o.o.o.o.o.o.o.@.$.$.@.@.@.@.>.>.>.>.>.>.>.>.<.#.>.#.<.#.$.,.<.,.#.#.<.<.) * @ H D D B Z B B ",
"w w u e e e e e e e N N B f d @ ~ X.X.o.o.X.*.X.o.o.*.o.@.@.@.o.@.>.*.-.*.>.>.>.>.#.,.<.,.,.,.$.<.$.#.1.>.>.q.5 + f D N B B N B ",
"e e e e e e N N S N N f N f f @ K X.o.o.o.o.o.*.o.*.*.o.o.o.*.>.>.*.>.>.>.>.>.>.$.,.,.#.<.#.%.%.1.%.%.,.,.>.X.g + n B D B B B B ",
"w e u i i i e N f S f N f N s % v X.X.o.o.o.o.*.o.*.>.-.@.>.>.*.>.>.*.<.<.>.>.>.<.,.$.<.,.$.1.<.%.1.<.1.<.>.=.r + v D D V B D B ",
"e u i e e N f x f N H x N S s % v o.o.o.*.*.*.*.o.+.*.$.$.$.>.-.*.>.*.,.>.>.<.>.$.#.,.1.%.%.%.1.%.1.<.1.,.<.=.g + v D D B B D D ",
"w e e i e f N x f N f f f f s @ M X.o.o.o.*.*.*.o.o.>.o.$.+.$.>.*.>.>.<.>.<.<.<.<.1.%.%.%.1.1.<.<.<.<.1.1.1.O.1 # z D D B B D D ",
"u i x e f N N f x x S x x x s @ K o.X.O.o.o.@.o.*.o.*.@.+.o.>.$.>.*.>.>.<.<.,.<.#.$.1.%.1.%.1.1.1.<.<.,.,.,.=.r + x B B B Z D D ",
"e e f x f f f x x x f S f N q @ K o.o.o.-.O.o.O.-.+.-.o.*.>.-.>.>.>.>.<.>.<.<.<.#.<.<.1.<.<.,.1.1.<.,.,.,.,.O.r + v D Z B D B B ",
"u e f z N f N f x x x x f N s @ K o.o.o.o.o.@.@.$.$.$.+.*.>.>.>.$.<.<.<.<.<.#.#.%.%.<.%.%.1.1.1.1.1.<.,.1.1.q.g % f D D B B P D ",
"d i f e f f f N N f f D N x d @ c O.+.O.@.o.o.o.o.o.>.*.*.>.o.>.$.$.<.<.>.>.@.<.,.1.1.<.1.,.$.1.<.3.1.3.2.<.=.r % f P D B B D D ",
"z e e x f N D f N f f x N x h * = T +.O.@.o.@.o.*.*.*.*.*.>.*.>.>.>.<.<.<.<.,.#.<.,.,.#.,.,.,.,.,.,.3.<.,.1.=.> @ b P D D D D D ",
"e e e i f f f x f x f N x f a % X 8 S R X.O.X.=.-.-.O.*.*.*.*.*.>.*.-.>.-.-.>.>.<.<.>.2.>.<.<.<.,.<.>.<.1.O.N $ % s D P D D D D ",
"8 q 0 8 0 q 0 q 0 q 0 0 q 8 ; % X . # 8 i p p i i i w e i e i i i i p i i i N N N N N N S S S S N p N n x r $ & & = t e e e w w ",
"      o o o X   . O X X X + . X . & & . . . # . . # # # # # . . X X X   + o . .   + + % % & & & & & + + + # & % % % % % % X . o ",
"> : = * + o % 0 k c c c z c c c c c c c c c c u c c v Q ~ K M 1 # & + * > r r 0 r r 0 q t t t t r r t t r t t 0 a h q t r - = + ",
"n F n c < . l t.r.h.h.4.a.a.l.a.h.l.l.l.l.l.l.l.l.z.l.j.Z.A.A.g.j & $ i L E E E U E Y E W E U Y Y ( W ( U / / Y W W W E U J K 5 ",
"e i z x h . [ 2.:.>.:.:.:.2.2.2.2.2.3.2.2.2.3.,.3.3.2.4.3.3.p.M.} & r G U C C C C A C A C A C A A A A A A A A A A C A C G U E c ",
"i i i c t . [ -.:.:.2.:.2.<.2.2.2.3.2.2.2.3.3.4.3.p.4.4.3.7.m.m.;.< y F F C V C C C C C C C G G C C A A G G U C U U G G C G D x ",
"i i i i i . ~ :.>.2.2.2.:.:.2.2.2.3.i.i.p.3.3.3.i.p.p.p.m.p.3.m.e.> y V G C C C Z C U D U G U G U G E G U U G U P U U G G D D v ",
"u i i i c   ! :.:.2.:.:.2.2.r.i.2.h.i.i.i.2.h.3.p.i.s.m.p.p.7.m.e.> y F F C C V C D G G G G G G G U G U G J U G U G G G G G H K ",
"i i y p n % v r.2.2.2.y.:.2.2.i.2.i.3.3.p.i.i.p.p.p.p.p.p.p.m.m.e.> t G C C C D G C G G G G G G U U U U U A U A U U A U A G G K ",
"u i i i z   M r.:.2.:.2.2.2.2.2.p.2.i.i.p.i.p.i.p.p.p.p.m.j.j.7.r.= y F G C C C D G C G U G U G U U A U U U U / U A U C A G D K ",
"i i i i x + M i.2.-.y.2.2.:.2.i.p.2.3.i.i.i.3.p.p.p.m.p.m.m.j.m.e.1 y F V C C G G G G G G G C G G U / C U U A U U U C U A G G K ",
"u p y i z   M :.2.2.r.2.:.i.2.2.2.2.i.3.2.j.p.i.p.p.m.p.C.p.m.m.r.= t G D V C G G G G G G E ) G / U U U U U U U U U / A U G D K ",
"p i u i y + ! r.2.:.:.2.2.2.2.2.i.3.i.i.2.j.i.p.i.m.C.p.m.m.m.m.r.= y C C C C G G D G G U U J E C U U G U U G U A U U U U U G K ",
"p y i i u   ~ :.:.y.2.2.2.r.2.i.2.i.3.i.p.2.p.j.p.p.p.m.7.j.p.m.d.1 y G C C C C G G G G G U G U U U U U A A U U U U U U U G D K ",
"i i i i c + c :.2.:.2.2.:.2.2.i.i.3.3.i.3.i.p.u.s.7.7.3.7.7.p.m.e.= r V B N V Z C P G C A A U U A U U U U U U U U U U U P G C F ",
"u u u i 0 + = ( =.;.;.;.:.=.:.:.r.-.:.:.:.r.r.w.r.i.2.<.2.i.i.i.L = = 9 9 e i N S S V B B B V G G G V D D D D D D D D S D B D t ",
"$ $ = : # . + - t r q t u t t t t t t t q t t s g r t r r t d t < % % * * * * : : > : - 8 8 1 - 8 8 0 8 8 8 8 - - - - - - - > * ",
". . X + X X % X + + % % +     +   + + + + + + @ * O O & % + + + + % % X   % # % # % # # % % & # % @ + @ @ @ + @ & # + + + # % % ",
"y c c Q Q M M ~ ! ] ] ] ] ] ~ ] ] [ { ......~ j # O % X 1 l b b m M M Q ' ' ' ' K ' M j * & > ! { ^ ^ ^ ^ ~ L ^ ^ ~ ~ ~ ~ ~ ^ ^ ",
"*.*.&.*.*.*.*.@.-.$.+.+.+.<.-.<.y.+.>.<.>.>.<.u.| 1 # > { Y I I Y Y I I R R X.Y R Y R q.r $ g.V.B.B.N.B.B.B.N.9.9.9.8.8.6.N.6.6.",
"X.Y Y X.Y &.X.X.X.o.X.o.+.+.O.O.o.o.o.o.*.*.>.$.w.M + 0 H D B D N B Z Z B B P P Z Z B D 0 0 M.1.5.5.5.5.5.5.5.5.5.5.,.5.1.5.1.,.",
"Y X.Y X.X.&.X.&.X.O.O.O.O.+.o.O.-.+.+.o.@.*.*.*.-.K $ : x D D D Z B B P D P P D D Z Z G 0 g u.5.5.5.5.5.5.5.5.5.5.5.5.u.5.1.1.5.",
"I X.X.X.X.Y X.&.O.=.O.O.O.*.o.O.-.o.+.+.>.-.*.>.:.G + : f P D D B B B D D D D P Z P P D > > m.5.5.5.5.5.5.5.6.5.5.m.5.5.u.5.5.1.",
"Y Y X.Y X.X.X.*.O.O.o.O.O.O.*.o.-.+.+.+.@.+.*.*.<.F + > N Z N D B D B D D D P D D P P H > 0 3.5.5.6.5.5.5.5.5.5.5.5.5.1.5.1.5.1."
};